<svg width="24" height="24" viewBox="0 0 24 24" fill="none" xmlns="http://www.w3.org/2000/svg">
<path d="M23.2258 22.4516H1.54839V0.774194C1.54839 0.346442 1.20194 0 0.774194 0C0.346442 0 0 0.346442 0 0.774194V23.2258C0 23.6536 0.346442 24 0.774194 24H23.2258C23.6536 24 24 23.6536 24 23.2258C24 22.7981 23.6536 22.4516 23.2258 22.4516Z" fill="#474555"/>
<path d="M3.24184 18.0483C3.46248 18.0483 3.68311 17.9534 3.83602 17.7715L9.32301 11.2227L12.3559 13.9325C12.5165 14.0767 12.7294 14.1463 12.9472 14.126C13.163 14.1047 13.3594 13.9944 13.4891 13.8221L20.36 4.72529C20.6174 4.38465 20.5496 3.89885 20.209 3.64142C19.8684 3.38303 19.3826 3.45078 19.1251 3.79239L12.7594 12.2176L9.7575 9.53604C9.6017 9.39669 9.39362 9.32604 9.18557 9.34152C8.97654 9.35701 8.78202 9.45572 8.6475 9.61637L2.64743 16.7776C2.37259 17.1057 2.41614 17.5934 2.74421 17.8682C2.88937 17.9892 3.0655 18.0482 3.24162 18.0482L3.24184 18.0483Z" fill="#474555"/>
</svg>
