<svg width="15" height="15" viewBox="0 0 15 15" fill="none" xmlns="http://www.w3.org/2000/svg">
<path d="M12.9877 9.16449C12.7942 9.16449 12.637 9.32115 12.637 9.51517V12.6267C12.6365 13.2071 12.166 13.6776 11.5855 13.6782H1.75227C1.17184 13.6776 0.701892 13.2071 0.70078 12.6267V3.49488C0.70133 2.91445 1.17184 2.4445 1.75227 2.44339H4.86379C5.05727 2.44339 5.21447 2.28674 5.21447 2.09271C5.21447 1.89924 5.05782 1.74203 4.86379 1.74203H1.75227C0.784882 1.74313 0.00112568 2.52693 0 3.4943V12.6267C0.0010993 13.5941 0.784896 14.3778 1.75227 14.379H11.5855C12.5529 14.3779 13.3367 13.5941 13.3378 12.6267V9.51516C13.3378 9.32168 13.1811 9.16448 12.9871 9.16448L12.9877 9.16449Z" fill="#474555"/>
<path d="M13.1992 0.840658C12.5836 0.22505 11.5848 0.22505 10.9687 0.840658L4.71634 7.09298C4.67347 7.13586 4.64269 7.18917 4.6262 7.24744L3.80392 10.2156C3.76984 10.3371 3.80447 10.4679 3.89351 10.5569C3.98311 10.646 4.11337 10.6806 4.23485 10.6471L7.20299 9.82478C7.26126 9.80884 7.31457 9.77751 7.35745 9.73464L13.6092 3.48231C14.2243 2.86616 14.2243 1.86851 13.6092 1.25177L13.1992 0.840658ZM5.48054 7.32051L10.5972 2.2033L12.2473 3.85341L7.13009 8.97062L5.48054 7.32051ZM5.15075 7.98174L6.46936 9.30035L4.64561 9.80547L5.15075 7.98174ZM13.1147 2.98652L12.7431 3.35808L11.0926 1.70755L11.4641 1.33599C11.806 0.994103 12.3612 0.994103 12.7031 1.33599L13.1142 1.74713C13.4555 2.08956 13.4555 2.64416 13.1142 2.98604L13.1147 2.98652Z" fill="#474555"/>
</svg>
