<svg width="22" height="24" viewBox="0 0 22 24" fill="none" xmlns="http://www.w3.org/2000/svg">
<path d="M21.0831 8.90575L11.6141 0.237977C11.2657 -0.0793256 10.7341 -0.0793256 10.3857 0.237977L0.916665 8.93352C0.346045 9.44698 0.0149013 10.1762 0 10.9458V21.4137C0.0240624 22.1233 0.327711 22.7948 0.843331 23.2794C1.35895 23.7652 2.04532 24.0237 2.74999 23.9983H8.24998C8.4929 23.9983 8.72665 23.9014 8.89851 23.7283C9.07039 23.5552 9.16663 23.3198 9.16663 23.0752V18.4598H12.8333V23.0752C12.8333 23.3198 12.9295 23.5552 13.1014 23.7283C13.2733 23.9014 13.507 23.9983 13.7499 23.9983H19.2499C19.9546 24.0237 20.641 23.7652 21.1566 23.2794C21.6722 22.7948 21.9759 22.1233 21.9999 21.4137V10.9922C22.0057 10.196 21.6722 9.43682 21.0833 8.90605L21.0831 8.90575ZM20.1665 21.4135C20.1138 21.8716 19.7047 22.2005 19.2498 22.152H14.6665V17.5366C14.6665 17.292 14.5702 17.0566 14.3984 16.8835C14.2265 16.7105 13.9927 16.6135 13.7498 16.6135H8.24985C7.74338 16.6135 7.33318 17.0266 7.33318 17.5366V22.152H2.74986C2.29496 22.2005 1.88591 21.8716 1.83319 21.4135V10.9457C1.8309 10.6988 1.93517 10.4634 2.11736 10.2995L10.9998 2.16729L19.8549 10.2721C20.06 10.4532 20.1746 10.7174 20.1666 10.9921L20.1665 21.4135Z" fill="#474555"/>
</svg>
