<svg width="24" height="24" viewBox="0 0 24 24" fill="none" xmlns="http://www.w3.org/2000/svg">
<path d="M23.2258 22.4516H1.54839V0.774194C1.54839 0.346442 1.20194 0 0.774194 0C0.346442 0 0 0.346442 0 0.774194V23.2258C0 23.6536 0.346442 24 0.774194 24H23.2258C23.6536 24 24 23.6536 24 23.2258C24 22.7981 23.6536 22.4516 23.2258 22.4516Z" fill="#7273CD"/>
<path d="M3.24196 18.0483C3.4626 18.0483 3.68324 17.9534 3.83614 17.7715L9.32313 11.2227L12.356 13.9325C12.5166 14.0767 12.7295 14.1463 12.9473 14.126C13.1631 14.1047 13.3595 13.9944 13.4892 13.8221L20.3601 4.72529C20.6175 4.38465 20.5498 3.89885 20.2091 3.64142C19.8685 3.38303 19.3827 3.45078 19.1252 3.79239L12.7595 12.2176L9.75763 9.53604C9.60182 9.39669 9.39374 9.32604 9.18569 9.34152C8.97666 9.35701 8.78214 9.45572 8.64762 9.61637L2.64756 16.7776C2.37271 17.1057 2.41627 17.5934 2.74433 17.8682C2.88949 17.9892 3.06563 18.0482 3.24175 18.0482L3.24196 18.0483Z" fill="#7273CD"/>
</svg>
