<svg width="233" height="259" viewBox="0 0 233 259" fill="none" xmlns="http://www.w3.org/2000/svg">
<path d="M38.8965 253.633H133.688" stroke="#494867" stroke-width="9" stroke-miterlimit="10" stroke-linecap="round"/>
<path d="M47.1021 63.9854C60.097 57.4939 74.5076 45.7707 75.6516 25.5428C77.7685 -11.8648 24.8205 7.87344 15.9276 36.6929C15.8388 36.9807 15.7526 37.2667 15.6691 37.5509C10.138 56.3599 29.6037 72.7338 47.1021 63.9854Z" fill="#DCF4FE"/>
<path d="M224.944 136.529C224.906 136.745 224.867 136.96 224.827 137.176C224.492 138.992 224.114 140.801 223.693 142.603C223.693 142.607 223.693 142.611 223.693 142.614C223.681 142.663 223.67 142.712 223.657 142.761C223.594 143.029 223.531 143.295 223.467 143.561C223.402 143.827 223.333 144.108 223.264 144.38C223.194 144.653 223.127 144.925 223.056 145.197C223.021 145.336 222.985 145.476 222.945 145.614C222.891 145.823 222.834 146.033 222.778 146.242C222.752 146.342 222.724 146.443 222.697 146.543C222.622 146.819 222.547 147.094 222.475 147.37C222.403 147.629 222.329 147.889 222.253 148.149C222.225 148.247 222.197 148.345 222.168 148.441C222.169 148.444 222.169 148.447 222.168 148.449C222.091 148.721 222.011 148.992 221.93 149.262C221.837 149.577 221.742 149.891 221.645 150.204C221.455 150.824 221.259 151.442 221.059 152.057L221.049 152.089C220.951 152.386 220.853 152.683 220.753 152.98L220.653 153.276L220.44 153.901C220.329 154.226 220.218 154.551 220.098 154.875C220.004 155.139 219.909 155.403 219.813 155.666C219.716 155.93 219.615 156.207 219.514 156.477C219.458 156.628 219.403 156.779 219.344 156.931C219.273 157.123 219.198 157.316 219.122 157.508C219.067 157.652 219.011 157.796 218.954 157.94C218.926 158.016 218.898 158.089 218.868 158.163C218.755 158.448 218.642 158.734 218.528 159.019C218.517 159.048 218.506 159.076 218.494 159.105L218.294 159.598C218.224 159.772 218.152 159.945 218.08 160.119L217.863 160.638C217.431 161.664 216.984 162.685 216.522 163.7C216.516 163.718 216.509 163.734 216.5 163.75C216.385 164 216.27 164.248 216.155 164.496C216.039 164.744 215.92 164.998 215.795 165.259C215.674 165.514 215.552 165.767 215.429 166.021C215.306 166.274 215.182 166.526 215.057 166.779C214.682 167.534 214.299 168.285 213.906 169.033C213.775 169.283 213.643 169.531 213.51 169.779C213.243 170.274 212.973 170.768 212.7 171.26C212.288 171.997 211.868 172.729 211.439 173.457C211.153 173.941 210.863 174.424 210.568 174.904C210.479 175.048 210.391 175.194 210.301 175.339C210.031 175.771 209.759 176.203 209.484 176.633C209.3 176.92 209.115 177.205 208.929 177.489C208.744 177.773 208.556 178.057 208.365 178.34L208.269 178.484L207.951 178.951C207.893 179.039 207.833 179.127 207.771 179.215C207.637 179.412 207.501 179.608 207.364 179.803C207.347 179.829 207.328 179.856 207.307 179.884C207.175 180.075 207.042 180.264 206.908 180.453C206.86 180.522 206.811 180.591 206.76 180.661C206.625 180.851 206.489 181.041 206.351 181.23C206.185 181.459 206.019 181.687 205.852 181.914C205.517 182.368 205.179 182.819 204.835 183.268C204.696 183.451 204.556 183.633 204.414 183.815C204.368 183.876 204.32 183.938 204.271 183.999C204.16 184.143 204.049 184.285 203.938 184.428C203.85 184.539 203.759 184.656 203.667 184.769C203.575 184.883 203.489 184.992 203.4 185.103C203.31 185.215 203.23 185.316 203.143 185.422C203.006 185.59 202.87 185.758 202.733 185.925C202.553 186.143 202.373 186.361 202.191 186.578C202.008 186.801 201.825 187.014 201.637 187.231C201.27 187.661 200.901 188.087 200.527 188.51C200.351 188.71 200.173 188.909 199.993 189.108C199.974 189.131 199.953 189.154 199.932 189.177C199.78 189.346 199.628 189.51 199.474 189.681C199.407 189.755 199.339 189.831 199.268 189.903C199.12 190.067 198.969 190.23 198.815 190.392C198.81 190.399 198.804 190.406 198.797 190.412C198.607 190.614 198.417 190.817 198.226 191.018C197.834 191.43 197.438 191.838 197.039 192.243C196.848 192.435 196.657 192.628 196.465 192.818L196.423 192.86C196.271 193.012 196.118 193.163 195.965 193.312C195.884 193.393 195.803 193.472 195.722 193.55C195.587 193.68 195.452 193.812 195.317 193.941C195.212 194.043 195.108 194.142 195.004 194.24C194.899 194.338 194.795 194.439 194.691 194.537C194.587 194.635 194.476 194.742 194.367 194.841C194.235 194.965 194.103 195.088 193.971 195.21C193.538 195.61 193.101 196.006 192.658 196.398C192.539 196.504 192.42 196.61 192.3 196.713C192.18 196.817 192.072 196.914 191.958 197.012C191.769 197.177 191.58 197.341 191.39 197.503C191.2 197.667 191.009 197.828 190.817 197.99L190.652 198.129C190.485 198.269 190.316 198.409 190.146 198.548C189.933 198.724 189.72 198.898 189.506 199.071C189.395 199.166 189.274 199.259 189.157 199.353L188.652 199.756L188.037 200.235C187.851 200.379 187.666 200.522 187.482 200.663L187.223 200.861C187.029 201.009 186.834 201.155 186.639 201.298C186.464 201.429 186.288 201.559 186.111 201.688C186 201.769 185.896 201.847 185.787 201.925C185.639 202.032 185.493 202.137 185.35 202.241L185.063 202.446L184.633 202.75L184.265 203.008C184.237 203.026 184.21 203.047 184.182 203.064C183.948 203.228 183.713 203.39 183.477 203.55L183.325 203.652L182.96 203.898L182.898 203.939C182.736 204.05 182.573 204.158 182.409 204.263C182.003 204.532 181.594 204.797 181.181 205.059L180.803 205.298L180.635 205.404C180.464 205.512 180.291 205.619 180.117 205.725C179.907 205.855 179.697 205.983 179.485 206.111L179.468 206.121L179.094 206.344C178.668 206.598 178.239 206.85 177.807 207.1C177.556 207.244 177.304 207.388 177.051 207.53C176.843 207.648 176.634 207.765 176.424 207.88L176.333 207.931L176 208.113C175.541 208.365 175.079 208.612 174.614 208.855C174.422 208.956 174.228 209.056 174.035 209.155C173.954 209.197 173.873 209.24 173.791 209.28C173.555 209.401 173.318 209.521 173.08 209.64L172.454 209.95L172.133 210.106C172.133 210.106 172.133 210.106 172.127 210.106C171.923 210.206 171.718 210.304 171.512 210.402C170.92 210.686 170.322 210.963 169.717 211.233C169.496 211.332 169.281 211.429 169.063 211.526L168.739 211.667C168.572 211.741 168.406 211.813 168.24 211.884L167.973 211.995C167.736 212.097 167.496 212.198 167.257 212.297C166.976 212.414 166.694 212.53 166.411 212.644H166.397C166.183 212.731 165.968 212.817 165.753 212.901L165.531 212.99C165.247 213.101 164.961 213.213 164.675 213.324C164.358 213.445 164.042 213.563 163.724 213.681C163.472 213.775 163.219 213.867 162.965 213.957C162.936 213.968 162.907 213.98 162.878 213.988C162.688 214.057 162.498 214.125 162.308 214.191C162.264 214.208 162.22 214.223 162.176 214.238L161.833 214.357C161.601 214.438 161.368 214.517 161.135 214.596C160.902 214.675 160.674 214.751 160.442 214.826C160.331 214.863 160.225 214.898 160.117 214.938L160.082 214.949C159.832 215.03 159.58 215.111 159.328 215.19C159.025 215.286 158.72 215.381 158.415 215.474L157.944 215.636L157.407 215.795C157.227 215.848 157.047 215.9 156.867 215.952C156.584 216.033 156.3 216.114 156.015 216.193L155.629 216.299C154.683 216.558 153.726 216.804 152.758 217.039L152.314 217.145C151.587 217.318 150.852 217.484 150.112 217.642C149.961 217.675 149.809 217.708 149.657 217.739L149.088 217.857C148.518 217.974 147.944 218.085 147.367 218.191L146.821 218.292L146.155 218.411L145.672 218.495C145.05 218.6 144.424 218.701 143.793 218.797C143.624 218.824 143.452 218.85 143.281 218.874L142.795 218.945L142.092 219.043C141.901 219.07 141.709 219.095 141.517 219.12C140.437 219.261 139.347 219.388 138.247 219.501C138.091 219.517 137.936 219.532 137.781 219.547C136.791 219.644 135.792 219.728 134.785 219.801L134.272 219.837L133.537 219.885C133.328 219.898 133.12 219.91 132.91 219.921L132.461 219.946L132.099 219.965L131.648 219.986C131.52 219.986 131.39 219.998 131.259 220.002L130.834 220.02C130.47 220.035 130.106 220.048 129.741 220.058C129.376 220.069 129.009 220.078 128.639 220.087L128.203 220.096C127.859 220.103 127.513 220.107 127.166 220.11C127.022 220.11 126.878 220.11 126.734 220.11C118.622 220.165 110.005 219.457 100.875 217.885C81.5507 214.566 66.0483 209.217 53.7958 202.506C16.2836 181.958 9.22808 148.642 16.1615 121.723C21.1145 102.492 33.2062 86.528 46.4329 80.8189C46.4329 80.8189 60.4552 74.8315 68.4582 66.3068C68.4582 66.3068 86.0998 48.1878 96.6625 31.5646C110.423 9.90773 158.599 -5.0651 205.821 51.9783C223.827 73.7298 230.397 106.034 224.944 136.529Z" fill="#DCF4FE"/>
<path d="M35.768 80.1868C35.768 80.1868 -18.5748 124.369 19.5876 183.322C65.8108 254.728 184.042 228.777 205.594 192.651" stroke="#DCF4FE" stroke-width="12" stroke-miterlimit="10" stroke-linecap="round"/>
<path d="M115.487 9.00633C115.487 9.00633 188.264 -12.8408 226.808 73.2624" stroke="#DCF4FE" stroke-width="12" stroke-miterlimit="10" stroke-linecap="round"/>
<path d="M224.944 136.529C224.906 136.745 224.867 136.96 224.827 137.176C224.492 138.992 224.114 140.801 223.693 142.603C223.693 142.607 223.693 142.611 223.693 142.614C223.681 142.663 223.67 142.712 223.657 142.761C223.594 143.029 223.531 143.295 223.467 143.561C223.402 143.827 223.333 144.108 223.264 144.381C223.194 144.653 223.127 144.925 223.056 145.197C223.021 145.336 222.985 145.476 222.945 145.614C222.891 145.823 222.834 146.033 222.778 146.242C222.752 146.343 222.724 146.443 222.697 146.543C222.622 146.819 222.547 147.094 222.475 147.37C222.403 147.629 222.329 147.889 222.253 148.149C222.225 148.247 222.197 148.345 222.168 148.441C222.169 148.444 222.169 148.447 222.168 148.449C222.091 148.721 222.011 148.992 221.93 149.262C221.837 149.577 221.742 149.891 221.645 150.204C221.455 150.825 221.259 151.442 221.059 152.057L221.049 152.09C220.951 152.386 220.853 152.683 220.753 152.98L220.653 153.276L220.44 153.901C220.329 154.226 220.218 154.551 220.098 154.875C220.004 155.139 219.909 155.403 219.813 155.666C219.716 155.93 219.615 156.207 219.514 156.477C219.458 156.628 219.403 156.779 219.344 156.931C219.273 157.123 219.198 157.316 219.122 157.508C219.067 157.652 219.011 157.796 218.954 157.94C218.926 158.016 218.898 158.089 218.868 158.163C218.755 158.448 218.642 158.734 218.528 159.019C218.517 159.048 218.506 159.076 218.494 159.105L218.294 159.598C218.224 159.772 218.152 159.945 218.08 160.119L217.863 160.638C217.431 161.664 216.984 162.685 216.522 163.7C216.516 163.718 216.509 163.734 216.5 163.75C216.385 164 216.27 164.248 216.155 164.496C216.039 164.744 215.92 164.998 215.795 165.259C215.674 165.514 215.552 165.767 215.429 166.021C215.306 166.274 215.182 166.526 215.057 166.779C214.682 167.534 214.299 168.285 213.906 169.033C213.775 169.283 213.643 169.531 213.51 169.779C213.243 170.275 212.973 170.768 212.7 171.26C212.288 171.997 211.868 172.729 211.439 173.457C211.153 173.942 210.863 174.424 210.568 174.904C210.479 175.048 210.391 175.194 210.301 175.339C210.031 175.771 209.759 176.203 209.484 176.633C209.3 176.92 209.115 177.205 208.929 177.489C208.744 177.773 208.556 178.057 208.365 178.34L208.269 178.484L207.951 178.951C207.893 179.039 207.833 179.127 207.771 179.215C207.637 179.412 207.501 179.608 207.364 179.803C207.347 179.829 207.328 179.856 207.307 179.884C207.175 180.075 207.042 180.264 206.908 180.453C206.86 180.522 206.811 180.591 206.76 180.661C206.625 180.851 206.489 181.041 206.351 181.231C206.185 181.459 206.019 181.687 205.852 181.914C205.517 182.368 205.179 182.819 204.835 183.268C204.696 183.451 204.556 183.633 204.414 183.815C204.368 183.876 204.32 183.938 204.271 183.999C204.16 184.143 204.049 184.285 203.938 184.428C203.85 184.539 203.759 184.656 203.667 184.77C203.575 184.883 203.489 184.992 203.4 185.103C203.31 185.215 203.23 185.316 203.143 185.422C203.006 185.59 202.87 185.758 202.733 185.925C202.553 186.143 202.373 186.361 202.191 186.578C202.008 186.801 201.825 187.014 201.637 187.231C201.27 187.661 200.901 188.087 200.527 188.51C200.351 188.71 200.173 188.91 199.993 189.108C199.974 189.131 199.953 189.154 199.932 189.177C199.78 189.346 199.628 189.51 199.474 189.681C199.407 189.755 199.339 189.831 199.268 189.903C199.12 190.067 198.969 190.23 198.815 190.392C198.81 190.399 198.804 190.406 198.797 190.412C198.607 190.614 198.417 190.817 198.226 191.018C197.834 191.43 197.438 191.838 197.039 192.243C196.848 192.435 196.657 192.628 196.465 192.818L196.423 192.86C196.271 193.012 196.118 193.163 195.965 193.312C195.884 193.393 195.803 193.472 195.722 193.55C195.587 193.68 195.452 193.812 195.317 193.941C195.212 194.043 195.108 194.142 195.004 194.24C194.899 194.338 194.795 194.439 194.691 194.537C194.587 194.635 194.476 194.742 194.367 194.841C194.235 194.965 194.103 195.088 193.971 195.21C193.538 195.61 193.101 196.006 192.658 196.398C192.539 196.504 192.42 196.61 192.3 196.713C192.18 196.817 192.072 196.915 191.958 197.012C191.769 197.177 191.58 197.341 191.39 197.503C191.2 197.667 191.009 197.828 190.817 197.99L190.652 198.129C190.485 198.269 190.316 198.409 190.146 198.548C189.933 198.724 189.72 198.898 189.506 199.071C189.395 199.166 189.274 199.259 189.157 199.353L188.652 199.756L188.037 200.235C187.851 200.379 187.666 200.522 187.482 200.663L187.223 200.861C187.029 201.009 186.834 201.155 186.639 201.298C186.464 201.43 186.288 201.559 186.111 201.688C186 201.769 185.896 201.847 185.787 201.925C185.639 202.032 185.493 202.137 185.35 202.241L185.063 202.446L184.633 202.751L184.265 203.008C184.237 203.027 184.21 203.047 184.182 203.064C183.948 203.228 183.713 203.39 183.477 203.55L183.325 203.652L182.96 203.898L182.898 203.939C182.736 204.05 182.573 204.158 182.409 204.263C182.003 204.532 181.594 204.798 181.181 205.059L180.803 205.298L180.635 205.404C180.464 205.512 180.291 205.619 180.117 205.725C179.907 205.855 179.697 205.983 179.485 206.111L179.468 206.121L179.094 206.344C178.668 206.599 178.239 206.85 177.807 207.1C177.556 207.244 177.304 207.388 177.051 207.53C176.843 207.648 176.634 207.765 176.424 207.88L176.333 207.931L176 208.114C175.541 208.365 175.079 208.612 174.614 208.855C174.422 208.956 174.228 209.056 174.035 209.155C173.954 209.198 173.873 209.24 173.791 209.28C173.555 209.401 173.318 209.521 173.08 209.64L172.454 209.95L172.133 210.106C172.133 210.106 172.133 210.106 172.127 210.106C171.923 210.206 171.718 210.304 171.512 210.402C170.92 210.686 170.322 210.963 169.717 211.233C169.496 211.332 169.281 211.429 169.063 211.526L168.739 211.667C168.572 211.741 168.406 211.814 168.24 211.884L167.973 211.995C167.736 212.097 167.496 212.198 167.257 212.297C166.976 212.414 166.694 212.53 166.411 212.644H166.397C166.183 212.731 165.968 212.817 165.753 212.901L165.531 212.99C165.247 213.102 164.961 213.213 164.675 213.324C164.358 213.445 164.042 213.563 163.724 213.681C163.472 213.775 163.219 213.867 162.965 213.957C162.936 213.968 162.907 213.98 162.878 213.988C162.688 214.057 162.498 214.125 162.308 214.191C162.264 214.208 162.22 214.223 162.176 214.238L161.833 214.357C161.601 214.438 161.368 214.517 161.135 214.596C160.902 214.675 160.674 214.751 160.442 214.827C160.331 214.863 160.225 214.898 160.117 214.938L160.082 214.949C159.832 215.03 159.58 215.111 159.328 215.19C159.025 215.286 158.72 215.381 158.415 215.474L157.944 215.636L157.407 215.795C157.227 215.848 157.047 215.9 156.867 215.952C156.584 216.033 156.3 216.114 156.015 216.193L155.629 216.299C154.683 216.558 153.726 216.805 152.758 217.039L152.314 217.145C151.587 217.318 150.852 217.484 150.112 217.642C149.961 217.676 149.809 217.708 149.657 217.739L149.088 217.857C148.518 217.974 147.944 218.085 147.367 218.191L146.821 218.292L146.155 218.411L145.672 218.495C145.05 218.6 144.424 218.701 143.793 218.797C143.624 218.824 143.452 218.85 143.281 218.874L142.795 218.945L142.092 219.043C141.901 219.07 141.709 219.096 141.517 219.12C140.437 219.261 139.347 219.388 138.247 219.501C138.091 219.517 137.936 219.532 137.781 219.547C136.791 219.644 135.792 219.728 134.785 219.801L134.272 219.837L133.537 219.885C133.328 219.898 133.12 219.91 132.91 219.921L132.461 219.946L132.099 219.965L131.648 219.986C131.52 219.986 131.39 219.998 131.259 220.003L130.834 220.02C130.47 220.035 130.106 220.048 129.741 220.058C129.376 220.069 129.009 220.078 128.639 220.087L128.203 220.096C127.859 220.103 127.513 220.108 127.166 220.111C127.022 220.111 126.878 220.111 126.734 220.111C118.622 220.165 110.005 219.457 100.875 217.885C81.5507 214.566 66.0483 209.218 53.7958 202.506C16.2836 181.958 9.22808 148.642 16.1615 121.723C144.611 163.414 205.821 51.9783 205.821 51.9783C223.827 73.7298 230.397 106.034 224.944 136.529Z" fill="#BDEBFA"/>
<path d="M73.8223 30.04C73.8223 30.04 79.2058 28.0368 80.7991 34.959C81.8653 39.5897 82.1394 41.7042 83.1635 42.6891C83.1635 42.6891 83.7715 43.4259 83.8525 44.2561C83.9368 45.1241 81.6334 44.5699 81.3971 45.1397C81.1608 45.7095 80.7314 51.5945 76.4264 52.1186L76.8047 63.2809L62.6982 62.0456C62.6982 62.0456 67.7632 55.6543 62.6982 46.5765C57.6332 37.4986 73.8223 30.04 73.8223 30.04Z" fill="#F6A276"/>
<path d="M164.739 71.9714C164.739 71.9714 176.085 75.9778 175.058 85.0045C174.03 94.0311 157.749 82.8099 158.734 77.4858C159.72 72.1617 164.739 71.9714 164.739 71.9714Z" fill="#3F1809"/>
<path d="M154.308 78.0823L166.558 78.3617V81.0671C166.558 81.0671 156.412 83.3641 154.834 81.6291C153.256 79.8941 154.308 78.0823 154.308 78.0823Z" fill="#B7908B"/>
<path d="M171.231 68.1676C170.095 70.212 165.877 71.1624 165.877 71.1624V71.1824L165.759 83.333C157.891 88.371 154.975 83.8549 154.553 83.57C154.13 83.2851 154.553 74.3475 154.553 74.3475C153.083 74.3953 150.95 74.0626 150.287 72.7794C149.65 71.5486 148.228 66.4248 148.909 63.0728C148.937 62.9292 148.971 62.7901 149.007 62.6543C149.865 59.4826 151.413 56.0516 151.559 55.7377L151.568 55.7177C151.84 55.8412 169.298 63.7539 170.521 64.3203C171.744 64.8868 172.368 66.1243 171.231 68.1676Z" fill="#F8A478"/>
<path d="M165.795 79.4679C165.795 79.4679 163.335 82.1978 160.815 82.2802C158.296 82.3625 155.212 81.243 155.212 81.243C155.212 81.243 153.714 84.6429 157.005 84.95C160.296 85.2572 163.397 83.7091 163.995 82.7042C164.593 81.6993 165.783 80.987 165.783 80.987L165.795 79.4679Z" fill="#DC6350"/>
<path d="M154.522 74.9496C154.522 74.9496 155.703 74.9496 158.325 74.727C160.947 74.5044 165.542 74.5044 165.835 75.3625L165.876 71.1613L164.739 71.4295L154.55 74.3464L154.522 74.9496Z" fill="#DC6350"/>
<path d="M170.521 64.3181C169.301 63.7516 151.84 55.839 151.568 55.7154L151.559 55.7355L150.486 58.3508C150.486 58.3508 154.708 58.2261 157.375 59.4158C158.408 59.8776 160.524 60.8258 161.981 61.5014C162.516 61.7433 162.969 62.1366 163.284 62.633C163.6 63.1294 163.764 63.7073 163.756 64.2958C163.754 64.4457 163.736 64.5948 163.703 64.741C163.47 65.7292 158.67 65.0493 156.38 64.9636C156.38 64.9636 161.544 66.299 163.983 66.6863C163.565 69.1981 164.749 71.4239 164.749 71.4239L165.887 71.1746V71.1546C165.887 71.1546 170.103 70.2042 171.241 68.1598C172.38 66.1154 171.754 64.8879 170.521 64.3181Z" fill="#DC6350"/>
<path d="M170.521 64.3181C168.404 63.8908 166.82 66.6196 166.82 66.6196C166.126 66.811 165.822 64.79 165.683 63.5769C165.605 62.9159 163.528 61.4413 163.527 61.4413C162.347 60.9694 160.565 59.9534 158.384 59.0697C153.289 57.0053 150.676 57.7977 150.676 57.7977L149.234 61.8286C148.595 62.8068 148.001 63.0862 148.001 63.0862C144.875 64.4428 143.541 69.4396 143.5 69.5943C143.529 69.4363 144.486 64.3426 146.958 62.5642C149.47 60.7569 150.013 57.6052 150.013 57.6052L149.359 57.446C149.359 57.446 148.523 53.246 155.442 50.2045C162.361 47.1629 167.819 52.0541 169.857 55.7133C170.262 56.4542 170.554 57.2522 170.722 58.0804C171.387 61.1998 170.521 64.3181 170.521 64.3181Z" fill="#3F1809"/>
<path d="M164.739 71.4317C164.739 71.4317 158.23 74.126 154.55 74.3474C153.872 74.3707 153.194 74.3109 152.531 74.1694C151.563 73.9546 150.546 73.5462 150.159 72.795C149.522 71.5641 148.227 66.4248 148.907 63.0727C148.907 63.0727 150.904 63.795 152.544 64.3336C153.962 64.7988 161.566 65.5701 163.625 65.7737L164.14 65.8238C164.14 65.8238 164.36 70.1641 164.739 71.4317Z" fill="#F8FEFF"/>
<path d="M154.282 79.5914C154.282 79.5914 155.413 83.2139 159.416 83.2139C163.419 83.2139 166.64 80.2536 166.64 80.2536C166.64 80.2536 168.459 91.605 168.212 94.5186C167.964 97.4321 174.528 147.725 169.949 149.41C165.37 151.095 141.724 147.878 141.564 141.754C141.404 135.63 149.29 83.2517 150.562 82.0086C151.835 80.7655 154.282 79.5914 154.282 79.5914Z" fill="#494867"/>
<path d="M166.638 80.2535C166.638 80.2535 166.631 80.5351 165.162 81.352C165.162 81.352 162.373 94.3606 161.091 107.569L152.857 98.0832C153.913 88.8395 154.77 80.6108 154.77 80.6108L154.28 79.5925C154.28 79.5925 146.337 81.8049 145.675 84.7563C145.012 87.7077 140.18 144.128 142.469 145.965C144.758 147.803 169.03 146.348 169.107 143.21C169.184 140.071 166.638 80.2535 166.638 80.2535ZM150.198 119.017C150.779 115.312 151.491 109.706 152.179 103.915C152.899 104.793 153.804 106.153 154.494 107.1C155.783 108.865 158.295 111.693 159.414 112.442C160.534 113.191 160.559 114.858 160.559 114.858C160.414 118.092 160.415 121.188 160.629 123.942C161.856 139.661 148.221 131.648 150.198 119.017Z" fill="#333254"/>
<path d="M152.55 79.4679C152.55 79.4679 140.413 80.5096 138.5 83.6468C136.587 86.7841 132.089 112.509 130.563 113.806C129.036 115.104 111.99 141.902 111.99 141.902H121.455C121.455 141.902 135.6 125.611 136.312 125.03L134.48 140.364H146.183C146.183 140.364 151.405 84.2656 152.55 79.4679Z" fill="white"/>
<path d="M151.324 79.5959C151.324 79.5959 144.811 91.4826 145.116 92.1971C145.421 92.9116 148.735 113.746 148.735 113.746L149.29 108.416L152.158 79.5146L151.324 79.5959Z" fill="#F2CFCD"/>
<path d="M154.308 78.0824C154.308 78.0824 152.634 78.0434 151.285 80.7744C149.936 83.5055 146.082 92.0914 146.082 92.0914L148.931 111.782C148.931 111.782 152.571 86.8953 154.281 79.5881C154.338 79.3444 154.255 78.2905 154.308 78.0824Z" fill="white"/>
<path d="M148.017 85.9171L148.211 84.6873C148.234 84.54 148.287 84.3989 148.365 84.2722C148.444 84.1455 148.546 84.0357 148.667 83.9492C148.789 83.8627 148.926 83.8013 149.071 83.7685C149.216 83.7356 149.366 83.7321 149.512 83.758L151.607 84.1364C151.753 84.1627 151.893 84.218 152.018 84.299C152.142 84.3799 152.25 84.485 152.334 84.6081C152.418 84.7312 152.476 84.8697 152.506 85.0158C152.536 85.1618 152.537 85.3123 152.508 85.4586L152.286 86.5848C152.286 86.5848 150.726 87.434 149.998 87.3638C149.27 87.2937 148.017 85.9171 148.017 85.9171Z" fill="#484766"/>
<path d="M148.116 85.2816C148.116 85.2816 150.01 85.8648 152.51 85.4575L152.289 86.5837C152.289 86.5837 151.044 88.0249 149.574 87.8458C148.103 87.6666 148.015 85.9171 148.015 85.9171L148.116 85.2816Z" fill="#1C1D31"/>
<path d="M145.146 89.2113C145.146 89.2113 145.234 86.3177 146.082 86.0084C146.93 85.699 154.003 86.1786 154.003 87.789L153.568 91.7598C153.568 91.7598 153.221 94.2738 151.501 94.3595C149.781 94.4452 145.146 89.2113 145.146 89.2113Z" fill="#C4E9F2"/>
<path d="M153.76 90.0103C153.76 90.0103 152.392 92.1971 149.721 91.3291C148.08 90.7873 146.536 89.9863 145.147 88.9564L145.053 90.155C145.053 90.155 147.66 93.7997 150.968 93.241C154.275 92.6823 154.003 91.3291 154.003 91.3291L153.67 90.8361L153.76 90.0103Z" fill="#5BA2B2"/>
<path d="M156.004 107.865C156.004 107.865 155.411 107.61 155.75 106.215C156.09 104.821 157.988 99.5121 160.176 99.1894C160.176 99.1894 161.414 99.8182 162.229 103.17C163.043 106.522 156.004 107.865 156.004 107.865Z" fill="#E0A8A6"/>
<path d="M160.253 105.39C158.434 107.171 158.532 106.726 158.532 106.726C158.532 106.726 155.14 103.53 153.722 102.274C153.664 102.223 153.611 102.175 153.555 102.132C153.481 102.071 153.41 102.021 153.345 101.971C152.089 101.086 146.188 102.106 143.337 99.1972C143.337 99.1972 142.269 98.1511 143.211 96.6454C143.211 96.6454 142.397 96.0077 142.448 94.68C142.448 94.68 142.6 93.9911 143.211 93.9154C143.211 93.9154 142.524 93.0986 143.007 92.1281C143.489 91.1577 144.508 91.338 144.508 91.338C144.508 91.338 143.679 90.0782 145.149 89.2146C145.149 89.2146 147.536 91.7208 149.52 92.3307C151.504 92.9406 153.322 92.1671 153.571 91.7642L153.728 90.3241C153.728 90.3241 155.447 91.1766 155.752 91.9679C156.057 92.7592 155.034 95.055 155.648 96.3571C156.168 97.4611 159.498 99.6157 160.492 100.242C160.667 100.354 160.769 100.415 160.769 100.415C160.769 100.415 162.072 103.604 160.253 105.39Z" fill="#F8A478"/>
<path d="M160.253 105.39C158.799 107.105 160.226 106.392 158.533 106.726C158.533 106.726 156.271 104.864 155.058 103.484C155.432 103.786 156.693 104.589 158.066 103.96C160.186 102.991 160.49 100.242 160.49 100.242C160.665 100.354 160.767 100.415 160.767 100.415C160.767 100.415 161.903 103.445 160.253 105.39Z" fill="#DC6350"/>
<path d="M166.545 79.5914C166.545 79.5914 165.597 82.0943 164.299 90.5645C163 99.0347 163.154 101.102 163.154 101.102L160.177 99.1894C160.177 99.1894 161.397 99.8015 160.381 102.862C159.365 105.922 156.768 107.864 156.005 107.864L162.925 112.662C162.925 112.662 162.759 144.174 165.055 149.853C167.352 155.532 185.288 146.575 185.288 146.575C185.288 146.575 177.67 127.545 179.185 114.858C180.701 102.171 185.564 87.6031 178.898 83.6223C174.263 80.8523 166.545 79.5914 166.545 79.5914Z" fill="white"/>
<path d="M166.639 103.17L172.712 106.731C172.712 106.731 173.831 97.9864 174.238 96.1156C174.238 96.1156 173.912 94.365 173.636 96.2269C173.284 98.594 172.898 105.809 172.275 105.733C171.203 105.601 167.352 103.07 167.428 102.747C167.539 102.294 168.398 100.232 168.593 99.7191C169.184 98.1611 169.148 97.4822 168.403 95.2019C167.659 92.9216 168.675 91.4938 170.1 90.3363C171.524 89.1789 171.016 89.2479 170.439 86.5603C169.862 83.8727 168.35 79.952 168.35 79.952L167.445 79.7672C167.445 79.7672 166.029 91.9823 166.063 93.2521C166.098 94.5219 166.639 103.17 166.639 103.17Z" fill="#F0D7D3"/>
<path d="M166.558 78.3651C166.558 78.3651 162.925 94.4419 163.159 101.103L166.644 103.17C166.644 103.17 167.442 100.211 168.42 97.7605C168.42 97.7605 166.902 92.5032 167.055 92.196C167.208 91.8889 170.107 89.3882 170.107 89.3882C170.107 89.3882 168.544 79.1652 166.558 78.3651Z" fill="white"/>
<path d="M162.925 112.663C162.925 112.663 171.848 119.651 175.518 120.12L179.074 121.03L179.395 124.369C179.395 124.369 172.923 122.597 168.649 119.85C164.375 117.104 162.925 115.342 162.925 115.342V112.663Z" fill="#FBD4CD"/>
<path d="M172.711 106.726C172.711 106.726 175.981 108.507 176.726 110.035C176.726 110.035 177.083 109.652 175.557 108.12C174.031 106.589 172.77 106.275 172.77 106.275L172.711 106.726Z" fill="#F0D7D3"/>
<path d="M144.519 91.3124C144.749 91.5049 144.977 91.6986 145.202 91.8966L145.881 92.4865L146.547 93.0874C146.769 93.2863 146.991 93.4885 147.213 93.694L147.184 93.7273C146.877 93.6476 146.584 93.5223 146.314 93.3556C146.055 93.2004 145.811 93.0212 145.586 92.8204C145.36 92.6208 145.152 92.401 144.966 92.1637C144.767 91.9161 144.605 91.6405 144.486 91.3458L144.519 91.3124Z" fill="#EA7E4E"/>
<path d="M143.223 93.8854C143.445 94.0761 143.661 94.269 143.871 94.4641L144.515 95.0472L145.147 95.6415C145.36 95.8381 145.569 96.0385 145.775 96.2425L145.745 96.2748C145.448 96.1951 145.165 96.0701 144.906 95.9042C144.659 95.7505 144.427 95.5731 144.214 95.3744C143.999 95.1773 143.804 94.9601 143.631 94.7256C143.445 94.4805 143.297 94.2084 143.193 93.9188L143.223 93.8854Z" fill="#EA7E4E"/>
<path d="M143.225 96.6219C143.378 96.777 143.53 96.9328 143.683 97.0894C143.835 97.2459 143.989 97.3998 144.145 97.5512C144.299 97.7059 144.454 97.8583 144.614 98.0064C144.693 98.0787 144.774 98.1521 144.859 98.22C144.939 98.2915 145.025 98.3562 145.116 98.4137L145.095 98.4526C144.965 98.4629 144.834 98.4482 144.709 98.4092C144.594 98.3748 144.482 98.3286 144.376 98.2712C144.177 98.1638 143.994 98.0277 143.834 97.8672C143.675 97.7091 143.538 97.5302 143.427 97.3353C143.304 97.1252 143.224 96.893 143.191 96.652L143.225 96.6219Z" fill="#EA7E4E"/>
<path d="M139.493 103.17C139.19 108.032 136.358 124.769 136.314 125.031L135.805 125.717L123.288 142.601L120.133 137.515C120.133 137.515 132.753 126.512 134.38 120.122C136.008 113.732 136.721 94.3027 138.807 96.2603C138.864 96.3822 138.912 96.5074 138.953 96.6353C139.215 97.4221 139.724 99.4721 139.493 103.17Z" fill="#FBD4CD"/>
<path d="M170.521 64.3181C168.404 63.8907 166.82 66.6195 166.82 66.6195C166.126 66.811 165.696 64.5507 165.225 63.4244C164.953 62.7734 164.135 62.1101 163.527 61.4412C164.84 61.9473 166.199 62.3231 167.585 62.563C170.098 63.0082 170.709 58.1749 170.719 58.087C171.387 61.1997 170.521 64.3181 170.521 64.3181Z" fill="#280C01"/>
<path d="M164.139 65.824L167.588 65.6035L167.283 65.961L164.163 66.2205L164.139 65.824Z" fill="white"/>
<path d="M164.63 70.9667L167.338 70.7306L165.876 71.1627L164.739 71.4312L164.63 70.9667Z" fill="white"/>
<path d="M164.739 71.4317C164.739 71.4317 158.231 74.126 154.551 74.3475C153.873 74.3707 153.195 74.3109 152.531 74.1694C157.857 74.3475 164.005 71.1646 164.005 71.1646C164.099 70.9498 163.624 65.776 163.624 65.776L164.139 65.8261C164.139 65.8261 164.36 70.1641 164.739 71.4317Z" fill="#97CCDB"/>
<path d="M163.886 66.4738C163.436 66.5981 162.976 66.6791 162.512 66.7155C162.282 66.7422 162.053 66.7478 161.823 66.7634C161.593 66.779 161.365 66.7734 161.135 66.7779C160.905 66.7823 160.677 66.769 160.448 66.7589C160.22 66.7489 159.989 66.7344 159.76 66.7066C159.297 66.6666 158.838 66.5887 158.388 66.4738V66.4404H161.136L162.511 66.4482C162.968 66.4482 163.427 66.4482 163.883 66.437L163.886 66.4738Z" fill="#97CCDB"/>
<path d="M163.888 67.9316C163.427 68.1295 162.951 68.2888 162.464 68.408C162.223 68.4747 161.979 68.5193 161.737 68.5749C161.495 68.6305 161.247 68.6617 161.002 68.704C160.757 68.7463 160.51 68.7697 160.262 68.7941C160.015 68.8186 159.766 68.8376 159.516 68.8409C159.011 68.8698 158.504 68.8324 158.009 68.7296V68.6962C158.502 68.6869 158.995 68.6497 159.484 68.5849C159.975 68.5248 160.464 68.4547 160.952 68.3779C161.931 68.2369 162.907 68.0789 163.88 67.9038L163.888 67.9316Z" fill="#97CCDB"/>
<path d="M164.148 69.1325C163.719 69.5872 163.234 69.9862 162.706 70.32C162.445 70.4925 162.171 70.6427 161.896 70.7918C161.759 70.8686 161.615 70.9287 161.474 70.9966C161.333 71.0645 161.19 71.129 161.045 71.1869C160.899 71.2448 160.753 71.2982 160.601 71.3527C160.449 71.4073 160.304 71.4551 160.157 71.4996C160.011 71.5441 159.853 71.5786 159.702 71.6187C159.551 71.6608 159.397 71.6935 159.242 71.7166C159.086 71.7411 158.932 71.7689 158.777 71.7901C158.622 71.8112 158.464 71.8146 158.308 71.8246L158.073 71.8357C157.995 71.8357 157.917 71.8357 157.838 71.829C157.682 71.8224 157.525 71.8124 157.371 71.7979V71.7645L157.828 71.7155L158.056 71.691L158.278 71.651C158.428 71.6232 158.579 71.5998 158.729 71.5697L159.173 71.4584C159.766 71.3065 160.348 71.1112 160.913 70.8742C161.48 70.6439 162.034 70.3808 162.572 70.0862C163.11 69.7921 163.629 69.4635 164.125 69.1024L164.148 69.1325Z" fill="#97CCDB"/>
<path d="M163.149 100.918L167.809 103.654V103.856L163.154 101.102L163.149 100.918Z" fill="#F0D7D3"/>
<path d="M151.379 61.9621C151.354 62.2403 151.268 62.6299 150.958 62.6154C150.482 62.6009 150.87 61.271 150.985 61.1942C151.262 61.0117 151.405 61.3745 151.388 61.6861C151.391 61.7782 151.388 61.8704 151.379 61.9621Z" fill="#0A031C"/>
<path d="M151.183 61.7286C151.251 61.7286 151.307 61.6633 151.307 61.5827C151.307 61.5021 151.251 61.4368 151.183 61.4368C151.114 61.4368 151.059 61.5021 151.059 61.5827C151.059 61.6633 151.114 61.7286 151.183 61.7286Z" fill="white"/>
<path d="M157.215 63.7049C157.145 63.9742 156.993 64.3404 156.695 64.2825C156.228 64.1923 156.821 62.9403 156.946 62.8836C157.248 62.7478 157.332 63.1273 157.266 63.4322C157.254 63.5241 157.237 63.6151 157.215 63.7049Z" fill="#0A031C"/>
<path d="M157.2 63.3169C157.212 63.2373 157.168 63.164 157.1 63.1531C157.032 63.1423 156.967 63.198 156.955 63.2776C156.942 63.3571 156.986 63.4305 157.054 63.4413C157.122 63.4522 157.187 63.3964 157.2 63.3169Z" fill="white"/>
<path d="M150.066 59.7441C150.237 59.4543 150.499 59.2299 150.811 59.1064C151.128 58.971 151.475 58.9229 151.817 58.9673C151.985 58.9922 152.15 59.0371 152.308 59.1009C152.465 59.1617 152.614 59.2413 152.751 59.3379C152.884 59.4324 153.007 59.5386 153.121 59.6551C153.223 59.78 153.315 59.9132 153.395 60.0535L153.373 60.078C153.252 59.9878 153.133 59.8944 153.011 59.8053L152.818 59.6863C152.756 59.6446 152.69 59.6075 152.623 59.575L152.419 59.4793C152.385 59.4623 152.35 59.4485 152.314 59.4381L152.203 59.4036C152.061 59.3563 151.915 59.3216 151.767 59.3001C151.469 59.2613 151.167 59.283 150.878 59.3638C150.588 59.4447 150.318 59.5831 150.083 59.7708L150.066 59.7441Z" fill="#1C1D31"/>
<path d="M156.03 61.1308C156.332 60.9557 156.672 60.8571 157.021 60.8437C157.197 60.833 157.374 60.8412 157.549 60.8682C157.727 60.8997 157.901 60.9489 158.069 61.0151C158.238 61.0872 158.398 61.1798 158.544 61.2911C158.616 61.3489 158.685 61.411 158.75 61.4769C158.781 61.5103 158.813 61.5426 158.843 61.5771L158.924 61.6884C159.136 61.9766 159.252 62.3242 159.257 62.6822L159.226 62.6933C159.168 62.5423 159.098 62.3964 159.016 62.2571C158.935 62.1169 158.84 61.9859 158.731 61.8664C158.512 61.629 158.243 61.4438 157.944 61.3245C157.646 61.2007 157.329 61.1285 157.007 61.1108C156.683 61.0888 156.359 61.1071 156.04 61.1653L156.03 61.1308Z" fill="#1C1D31"/>
<path d="M167.828 67.0536C167.975 66.7748 168.162 66.5191 168.383 66.2946C168.603 66.0641 168.855 65.8665 169.131 65.7081C169.41 65.5479 169.717 65.4439 170.036 65.402C170.352 65.363 170.673 65.4012 170.971 65.5133C170.667 65.4746 170.359 65.4859 170.058 65.5467C169.911 65.5777 169.767 65.6213 169.628 65.6769C169.487 65.7308 169.351 65.7956 169.221 65.8706C168.958 66.0207 168.712 66.1971 168.485 66.397C168.252 66.6008 168.032 66.8202 167.828 67.0536Z" fill="#AF2415"/>
<path d="M170.598 66.5718C170.496 66.4705 170.398 66.377 170.296 66.2891C170.196 66.2016 170.09 66.1216 169.979 66.0498C169.87 65.9779 169.754 65.9175 169.632 65.8695C169.504 65.8234 169.373 65.7862 169.24 65.7582C169.38 65.7161 169.528 65.7089 169.671 65.7371C169.816 65.7628 169.955 65.8181 170.078 65.8996C170.201 65.9793 170.309 66.0789 170.399 66.1945C170.489 66.3058 170.557 66.434 170.598 66.5718Z" fill="#AF2415"/>
<path d="M79.71 32.1589C79.71 32.1589 75.8644 31.7505 73.6253 35.5198C71.3863 39.2892 70.2257 42.1004 70.2257 42.1004C70.2257 42.1004 67.0613 32.3303 71.5893 31.2074C76.1173 30.0845 79.71 32.1589 79.71 32.1589Z" fill="#DC6350"/>
<path d="M65.0428 42.4097C65.0428 42.4097 65.4445 43.5961 66.1069 44.4029C66.1069 44.4029 66.4586 50.3947 64.6966 51.945L63.5039 48.8434L65.0428 42.4097Z" fill="#DC6350"/>
<path d="M176.952 120.595C176.932 121.746 177.326 122.867 178.061 123.751C178.783 124.59 179.763 125.062 180.788 125.062H228.156C230.277 125.062 231.996 123.079 231.996 120.634V89.1823C231.996 86.734 230.277 84.7541 228.156 84.7541H181.028C178.92 84.7541 177.207 86.7139 177.188 89.1445L176.952 120.595Z" fill="#85AB90"/>
<path d="M208.012 91.3836C216.661 91.3836 224.818 92.4231 232 94.2604V89.1823C232 86.734 230.282 84.7541 228.16 84.7541H181.028C178.92 84.7541 177.207 86.7139 177.188 89.1445L177.134 96.3783C185.781 93.2377 196.457 91.3836 208.012 91.3836Z" fill="#85AB90"/>
<path d="M179.189 120.595C179.168 121.739 179.545 122.856 180.257 123.751C180.948 124.59 181.89 125.062 182.872 125.062H228.316C230.35 125.062 232 123.08 232 120.634V89.1835C232 86.7351 230.35 84.7553 228.316 84.7553H183.099C181.077 84.7553 179.438 86.714 179.416 89.1445L179.189 120.595Z" fill="#A0CAB2"/>
<path d="M232 89.1835C232 86.7351 230.35 84.7553 228.316 84.7553H220.204L187.005 125.065H213.462L232 92.304V89.1835Z" fill="#B2D1BE"/>
<path d="M214.495 136.517L210.603 121.035H202.756L203.375 133.582L196.372 135.909L196.475 136.517H214.495Z" fill="#85AB90"/>
<path d="M215.428 136.517L211.121 121.035L202.893 121.023L204.649 133.979L197.35 136.175L197.407 136.517H215.428Z" fill="#A6C2AE"/>
<path d="M202.756 121.035L198.311 125.033H203.039L202.756 121.035Z" fill="#85AB90"/>
<path d="M187.664 117.728C187.673 117.631 187.654 117.533 187.607 117.448C187.56 117.362 187.488 117.293 187.402 117.249C187.315 117.205 187.217 117.188 187.12 117.201C187.024 117.215 186.934 117.257 186.862 117.322C186.789 117.387 186.739 117.473 186.716 117.568C186.694 117.663 186.7 117.763 186.735 117.854C186.77 117.945 186.832 118.023 186.912 118.078C186.992 118.133 187.087 118.163 187.184 118.163C187.306 118.169 187.424 118.126 187.514 118.045C187.604 117.963 187.657 117.849 187.664 117.728Z" fill="black"/>
<path d="M189.857 117.728C189.867 117.631 189.847 117.533 189.8 117.448C189.753 117.362 189.682 117.293 189.595 117.249C189.508 117.205 189.41 117.188 189.314 117.201C189.217 117.215 189.127 117.257 189.055 117.322C188.983 117.387 188.932 117.473 188.91 117.568C188.887 117.663 188.894 117.763 188.929 117.854C188.964 117.945 189.025 118.023 189.105 118.078C189.186 118.134 189.281 118.163 189.378 118.163C189.438 118.166 189.498 118.157 189.554 118.137C189.611 118.117 189.663 118.086 189.707 118.045C189.752 118.005 189.788 117.956 189.814 117.902C189.84 117.847 189.854 117.788 189.857 117.728Z" fill="black"/>
<path d="M191.866 117.728C191.876 117.631 191.856 117.533 191.809 117.448C191.762 117.362 191.691 117.293 191.604 117.249C191.517 117.205 191.419 117.188 191.322 117.201C191.226 117.215 191.136 117.257 191.064 117.322C190.992 117.387 190.941 117.473 190.918 117.568C190.896 117.663 190.902 117.763 190.937 117.854C190.972 117.945 191.034 118.023 191.114 118.078C191.194 118.134 191.289 118.163 191.387 118.163C191.447 118.166 191.507 118.157 191.563 118.137C191.62 118.117 191.672 118.086 191.716 118.045C191.761 118.005 191.797 117.956 191.823 117.902C191.848 117.847 191.863 117.788 191.866 117.728Z" fill="black"/>
<path d="M193.766 117.728C193.776 117.631 193.756 117.533 193.709 117.448C193.662 117.362 193.591 117.293 193.504 117.249C193.417 117.205 193.319 117.188 193.223 117.201C193.126 117.215 193.036 117.257 192.964 117.322C192.892 117.387 192.841 117.473 192.819 117.568C192.796 117.663 192.803 117.763 192.838 117.854C192.873 117.945 192.934 118.023 193.015 118.078C193.095 118.134 193.19 118.163 193.287 118.163C193.347 118.166 193.407 118.157 193.463 118.137C193.52 118.117 193.572 118.086 193.617 118.045C193.661 118.005 193.697 117.956 193.723 117.902C193.749 117.847 193.763 117.788 193.766 117.728Z" fill="black"/>
<path d="M45.9033 112.547C45.9033 112.547 42.5858 111.898 41.0602 114.193C39.5346 116.489 35.3095 142.111 37.2434 143.693C39.1773 145.274 40.5587 145.984 44.8337 146.764C48.7892 147.487 54.6964 117.665 53.5258 116.848C52.3553 116.031 45.9033 112.547 45.9033 112.547Z" fill="#823C29"/>
<path d="M49.2011 115.217C49.2011 115.217 48.8449 116.808 47.5734 123.285C46.3019 129.762 44.834 146.767 44.834 146.767C44.834 146.767 52.1014 146.809 53.526 144.257C54.9507 141.705 54.549 114.629 53.526 114.298C52.503 113.967 49.2011 115.217 49.2011 115.217Z" fill="#3F1809"/>
<path d="M224.826 137.177C224.491 138.993 224.113 140.802 223.692 142.604C223.692 142.608 223.692 142.612 223.692 142.615C223.68 142.664 223.669 142.713 223.656 142.762C223.594 143.031 223.53 143.296 223.466 143.562C223.401 143.828 223.332 144.109 223.263 144.382C223.193 144.654 223.126 144.926 223.055 145.198C223.02 145.338 222.984 145.477 222.944 145.615C222.89 145.824 222.833 146.034 222.777 146.243C222.751 146.344 222.723 146.444 222.696 146.544C222.621 146.82 222.546 147.095 222.474 147.371C222.402 147.63 222.328 147.891 222.252 148.15C222.224 148.248 222.196 148.346 222.167 148.443C222.168 148.445 222.168 148.448 222.167 148.45C222.09 148.722 222.01 148.993 221.929 149.263C221.836 149.578 221.741 149.892 221.644 150.205C221.454 150.826 221.258 151.443 221.058 152.058L221.048 152.091C220.95 152.387 220.852 152.684 220.752 152.981L220.652 153.277L220.439 153.902C220.328 154.227 220.217 154.552 220.097 154.876C220.003 155.14 219.908 155.404 219.812 155.667C219.715 155.931 219.614 156.208 219.513 156.478C219.457 156.629 219.402 156.78 219.343 156.932C219.272 157.124 219.197 157.317 219.121 157.509C219.066 157.653 219.01 157.797 218.953 157.941C218.925 158.017 218.897 158.09 218.867 158.164C218.754 158.449 218.641 158.735 218.527 159.021C218.516 159.049 218.505 159.077 218.493 159.106L218.293 159.599C218.223 159.773 218.151 159.946 218.079 160.12L217.862 160.639C217.433 161.667 216.986 162.688 216.521 163.701C216.515 163.719 216.508 163.735 216.499 163.751C216.384 164.001 216.269 164.249 216.154 164.497C216.038 164.745 215.919 164.999 215.794 165.261C215.673 165.515 215.551 165.768 215.428 166.022C215.305 166.275 215.181 166.527 215.056 166.78C214.683 167.536 214.299 168.288 213.905 169.034C213.774 169.284 213.642 169.532 213.509 169.78C213.245 170.276 212.975 170.77 212.699 171.261C212.288 171.998 211.868 172.73 211.438 173.458C211.153 173.943 210.863 174.425 210.567 174.905C209.857 176.066 209.122 177.212 208.363 178.343L208.267 178.486L207.949 178.954C207.891 179.041 207.831 179.129 207.769 179.217C207.634 179.414 207.499 179.61 207.362 179.805C207.345 179.832 207.326 179.858 207.305 179.886C207.175 180.076 207.041 180.266 206.906 180.455C206.858 180.524 206.809 180.593 206.758 180.663C206.623 180.854 206.486 181.044 206.349 181.233C206.183 181.461 206.017 181.689 205.85 181.916C205.515 182.37 205.176 182.822 204.833 183.27C204.693 183.453 204.554 183.635 204.412 183.817C204.366 183.878 204.318 183.94 204.268 184.002C204.158 184.145 204.047 184.288 203.936 184.43C203.848 184.541 203.757 184.658 203.665 184.772C203.573 184.885 203.487 184.994 203.397 185.106C203.308 185.217 203.228 185.318 203.141 185.424C203.004 185.592 202.867 185.76 202.731 185.927C202.551 186.145 202.37 186.363 202.189 186.58C202.006 186.803 201.823 187.016 201.634 187.233C201.268 187.663 200.898 188.089 200.525 188.512C200.349 188.712 200.171 188.912 199.991 189.11C199.972 189.133 199.951 189.157 199.93 189.179C199.778 189.348 199.626 189.513 199.472 189.683C199.405 189.757 199.337 189.833 199.266 189.905C199.118 190.069 198.967 190.232 198.813 190.394C198.808 190.401 198.802 190.408 198.795 190.414C198.605 190.617 198.415 190.819 198.224 191.021C197.832 191.432 197.436 191.84 197.037 192.245C196.846 192.437 196.655 192.63 196.463 192.82L196.421 192.862C196.269 193.014 196.116 193.165 195.962 193.314C195.882 193.395 195.801 193.475 195.72 193.552C195.585 193.683 195.45 193.814 195.315 193.943C195.21 194.045 195.106 194.144 195.002 194.242C194.897 194.34 194.793 194.442 194.689 194.54C194.584 194.637 194.474 194.744 194.365 194.843C194.233 194.967 194.101 195.09 193.969 195.212C193.536 195.612 193.098 196.009 192.656 196.4C192.537 196.506 192.418 196.612 192.298 196.715C192.178 196.819 192.07 196.917 191.956 197.015C191.767 197.18 191.578 197.344 191.388 197.505C191.198 197.669 191.007 197.83 190.815 197.992L190.65 198.131C190.483 198.271 190.314 198.411 190.144 198.55C189.931 198.726 189.718 198.901 189.504 199.073C189.393 199.168 189.272 199.262 189.154 199.355L188.65 199.758L188.035 200.238C187.849 200.381 187.664 200.524 187.48 200.665L187.221 200.863C187.027 201.011 186.832 201.157 186.637 201.3C186.462 201.432 186.286 201.562 186.109 201.69C185.998 201.771 185.893 201.849 185.785 201.927C185.637 202.034 185.491 202.139 185.348 202.243L185.061 202.448L184.631 202.753L184.262 203.01C184.235 203.029 184.208 203.049 184.18 203.067C183.946 203.23 183.711 203.392 183.475 203.552L183.323 203.654L182.958 203.9L182.896 203.941C182.734 204.052 182.571 204.16 182.407 204.265C182.001 204.534 181.592 204.8 181.179 205.061L180.801 205.3L180.633 205.406C180.462 205.514 180.289 205.621 180.115 205.727C179.905 205.858 179.695 205.986 179.483 206.114L179.466 206.124L179.092 206.346C178.666 206.601 178.237 206.853 177.805 207.102C177.554 207.247 177.302 207.39 177.049 207.533C176.841 207.651 176.631 207.767 176.421 207.882L176.33 207.933L175.998 208.116C175.539 208.367 175.077 208.614 174.612 208.857C174.419 208.958 174.226 209.058 174.033 209.157C173.952 209.2 173.871 209.242 173.789 209.282C173.553 209.403 173.316 209.524 173.078 209.643L172.452 209.952L172.131 210.108C172.131 210.108 172.131 210.108 172.125 210.108C171.921 210.208 171.716 210.307 171.51 210.404C170.918 210.688 170.32 210.965 169.715 211.235C169.494 211.334 169.279 211.431 169.061 211.528L168.737 211.669C168.57 211.743 168.404 211.816 168.238 211.886L167.971 211.997C167.734 212.099 167.494 212.2 167.254 212.299C166.974 212.416 166.692 212.532 166.409 212.646H166.395C166.181 212.733 165.966 212.819 165.751 212.903L165.529 212.992C165.245 213.104 164.959 213.215 164.673 213.326C164.356 213.448 164.04 213.566 163.722 213.684C163.47 213.777 163.217 213.869 162.963 213.959C162.934 213.971 162.905 213.982 162.876 213.991C162.686 214.06 162.496 214.127 162.306 214.193C162.262 214.21 162.218 214.225 162.174 214.24L161.831 214.359C161.599 214.44 161.366 214.519 161.133 214.598C160.9 214.677 160.672 214.753 160.44 214.829C160.329 214.865 160.223 214.9 160.115 214.94L160.08 214.951C159.829 215.032 159.578 215.114 159.326 215.193C159.023 215.288 158.718 215.383 158.413 215.476L157.944 215.636L157.407 215.795C157.228 215.848 157.048 215.9 156.867 215.952C156.584 216.033 156.3 216.114 156.015 216.193L155.629 216.299C154.683 216.558 153.726 216.804 152.758 217.039L152.315 217.145C151.587 217.318 150.853 217.484 150.112 217.642C149.961 217.675 149.809 217.708 149.657 217.739L149.088 217.857C148.518 217.974 147.944 218.085 147.367 218.191L146.821 218.292L146.156 218.411L145.672 218.495C145.05 218.6 144.424 218.701 143.793 218.797C143.624 218.824 143.452 218.85 143.281 218.874L142.795 218.945L142.092 219.043C141.901 219.07 141.709 219.095 141.517 219.12C140.437 219.261 139.347 219.388 138.247 219.501C138.092 219.517 137.936 219.532 137.781 219.547C136.791 219.644 135.793 219.728 134.785 219.801L134.272 219.837L133.537 219.885C133.328 219.898 133.12 219.91 132.91 219.921L132.461 219.946L132.099 219.965L131.648 219.986C131.52 219.986 131.39 219.998 131.259 220.002L130.834 220.02C130.47 220.035 130.106 220.048 129.741 220.058C129.377 220.069 129.009 220.078 128.639 220.087L128.203 220.096C127.859 220.103 127.514 220.107 127.166 220.11C127.022 220.11 126.879 220.11 126.734 220.11C118.623 220.165 110.005 219.457 100.876 217.885C81.5508 214.566 66.0485 209.217 53.7959 202.506V137.177H224.826Z" fill="#7273CD"/>
<path d="M224.826 137.177C224.491 138.993 224.113 140.802 223.693 142.604C223.692 142.608 223.692 142.612 223.693 142.615C223.68 142.664 223.669 142.713 223.657 142.762C223.595 143.031 223.531 143.297 223.466 143.563C223.402 143.829 223.333 144.109 223.263 144.382C223.193 144.654 223.127 144.926 223.056 145.198C223.02 145.338 222.985 145.477 222.945 145.615C222.89 145.824 222.834 146.034 222.777 146.243C222.752 146.344 222.724 146.444 222.696 146.544C222.622 146.82 222.546 147.095 222.474 147.371C222.402 147.63 222.329 147.891 222.252 148.15C222.225 148.248 222.197 148.346 222.168 148.443C222.169 148.445 222.169 148.448 222.168 148.45C222.09 148.722 222.011 148.993 221.929 149.263C221.836 149.578 221.741 149.892 221.644 150.205C221.454 150.826 221.259 151.443 221.058 152.058L221.048 152.091C220.951 152.387 220.852 152.684 220.752 152.981L220.652 153.277L220.439 153.902C220.328 154.227 220.217 154.552 220.098 154.876C220.003 155.14 219.909 155.404 219.812 155.668C219.716 155.931 219.615 156.208 219.514 156.478C219.457 156.629 219.403 156.78 219.343 156.932C219.272 157.124 219.198 157.317 219.121 157.509C219.067 157.653 219.01 157.798 218.954 157.941C218.926 158.017 218.897 158.09 218.867 158.164C218.755 158.449 218.642 158.735 218.528 159.021C218.517 159.05 218.505 159.077 218.493 159.106L218.294 159.599C218.223 159.773 218.152 159.947 218.079 160.12L217.863 160.639L53.792 143.556V137.177H224.826Z" fill="#6566BC"/>
<path d="M224.944 136.529C224.905 136.745 224.866 136.96 224.826 137.176C224.491 138.992 224.113 140.801 223.692 142.603H50.5488V136.528L224.944 136.529Z" fill="#8889DC"/>
<path d="M64.4836 58.1694C64.4836 58.1694 70.9844 60.2249 73.8392 60.0958C76.694 59.9667 76.6862 59.7797 76.6862 59.7797L76.805 63.2776L63.5039 60.7179L64.4836 58.1694Z" fill="#DC6350"/>
<path d="M79.7103 32.1589C79.7103 32.1589 76.4682 30.8635 74.0073 33.7592C71.5463 36.655 70.226 42.1003 70.226 42.1003C70.226 42.1003 69.2796 38.3499 66.3914 38.6816C64.7271 38.873 64.5574 40.3676 64.8991 41.7465C65.339 43.5892 65.3769 45.5055 65.0101 47.3643C64.9102 47.8896 64.5041 51.0491 64.5041 51.0491C64.5041 51.0491 64.2156 52.8787 61.9433 48.7955C59.671 44.7123 56.0539 39.1445 59.8885 32.4494C63.723 25.7542 78.7139 25.644 79.7103 32.1589Z" fill="#1C1D31"/>
<path d="M54.3143 225.066C54.3143 225.066 53.1693 236.683 53.8561 238.597C54.5429 240.511 46.9869 239.975 46.9869 238.597C46.9869 237.219 46.5286 217.773 46.9869 217.237C47.4451 216.701 54.3143 225.066 54.3143 225.066Z" fill="#E38964"/>
<path d="M95.2952 224.591C95.2952 224.591 95.7112 236.258 96.6477 238.057C97.5841 239.857 90.0237 240.345 89.8395 238.98C89.6554 237.614 86.6075 218.406 86.9903 217.812C87.373 217.219 95.2952 224.591 95.2952 224.591Z" fill="#E38964"/>
<path d="M98.3537 175.133C97.2852 187.994 96.5218 225.2 96.5218 225.2H84.4635C84.4635 225.2 77.1405 191.209 77.1405 183.86C77.1405 176.512 66.6078 155.381 66.6078 155.381C66.6078 155.381 64.0126 183.092 61.5705 190.597C59.1284 198.101 54.8534 224.429 54.8534 224.429H45.5378C45.3159 224.01 45.1339 222.915 44.983 221.331C44.081 211.893 44.3628 185.098 45.5378 180.641C46.9114 175.436 46.9114 145.732 46.9114 137.924C46.9114 130.115 51.4904 114.038 51.4904 114.038L90.8788 111.128C90.8788 111.128 99.4221 162.271 98.3537 175.133Z" fill="#494867"/>
<path d="M85.0254 118.754C85.0254 118.754 91.4361 155.828 90.5519 171.527C89.6676 187.227 90.3533 224.638 90.3533 224.638" stroke="#AEAFC3" stroke-width="11" stroke-miterlimit="10"/>
<path d="M87.9102 118.754C87.9102 118.754 94.321 155.828 93.4368 171.527C92.5525 187.227 93.7696 223.821 93.7696 223.821" stroke="#AEAFC3" stroke-width="11" stroke-miterlimit="10"/>
<path d="M92.2213 119.497C92.2213 119.497 90.213 121.194 86.9055 120.067C83.598 118.941 80.9529 117.154 77.3902 118.225C73.8275 119.297 62.8619 125.291 52.6221 118.645C52.6221 118.645 57.6483 112.356 58.5636 111.795C59.479 111.234 90.8743 111.127 90.8743 111.127L92.2213 119.497Z" fill="#231F36"/>
<path d="M64.2586 59.0352C64.2586 59.0352 67.7225 60.078 69.8939 60.2817C72.0652 60.4853 77.3899 61.172 79.2561 62.6299C81.1224 64.0878 85.5805 66.831 87.7707 70.0974C89.9609 73.3637 100.287 95.8719 102.374 97.4533C102.374 97.4533 100.338 99.234 99.575 100.516C98.8116 101.798 94.3857 109.601 94.3857 109.601C94.3857 109.601 94.8939 120.293 87.2104 118.634C82.6069 117.64 79.9851 113.428 75.8643 114.704C71.7435 115.981 63.7793 121.159 55.9937 119.859C48.2081 118.559 49.7359 111.284 49.7359 111.284C49.7359 111.284 48.3612 87.4763 53.3974 75.4571C58.4335 63.4378 63.7449 56.6225 64.2586 59.0352Z" fill="#DC433D"/>
<path d="M93.9434 113.829L89.2457 106.539C84.65 107.305 79.0191 110.211 79.0191 110.211C77.1973 106.902 74.541 88.0104 74.541 88.0104C71.7927 84.7185 76.3729 109.292 77.2128 112.139C78.0527 114.986 82.8137 111.497 84.5479 110.194C88.5333 107.2 92.4467 114.496 93.2688 115.758L93.9434 113.829Z" fill="#AF0808"/>
<path d="M83.0072 65.3887C83.0072 65.3887 80.5451 65.3008 76.4743 69.5876C72.4034 73.8745 50.3194 116.064 50.3194 116.064C50.3194 116.064 49.9599 115.378 49.7158 114.061C49.7158 114.061 68.2305 72.3409 73.9801 68.2099C79.7296 64.0788 82.4679 64.0465 83.0072 65.3887Z" fill="#AF0808"/>
<path d="M79.2564 62.6299C79.2564 62.6299 76.3716 62.9359 71.8614 67.4609C67.7406 71.5942 49.1005 106.523 45.8984 112.547C45.8377 112.662 45.8003 112.788 45.7883 112.918C45.7764 113.047 45.7902 113.178 45.8289 113.302C45.8676 113.426 45.9304 113.542 46.0137 113.641C46.0971 113.741 46.1993 113.823 46.3144 113.883L48.6711 115.107C48.7868 115.167 48.9133 115.204 49.0431 115.214C49.173 115.225 49.3037 115.209 49.4276 115.169C49.5515 115.129 49.6661 115.064 49.7648 114.978C49.8635 114.893 49.9443 114.789 50.0025 114.672C52.9516 108.747 69.7233 75.269 75.1456 69.4819C81.0982 63.1284 83.0011 65.3854 83.0011 65.3854C83.0011 65.3854 83.5747 65.4666 82.1501 64.2936C80.7254 63.1206 80.1385 62.5108 79.2564 62.6299Z" fill="#8E4C36"/>
<path d="M66.6033 155.381C66.6033 155.381 64.0081 183.092 61.566 190.597C59.1239 198.101 54.8489 224.429 54.8489 224.429H45.5377L44.9829 221.331L44.8564 219.773C44.8564 219.773 51.548 221.917 53.685 218.447C55.822 214.977 63.3479 163.949 60.7017 152.415C58.0554 140.881 58.4626 135.165 60.1924 136.797C60.1946 136.804 65.3817 151.401 66.6033 155.381Z" fill="#2F2E4E"/>
<path d="M44.1805 220.155C44.1805 220.155 50.4438 222.128 55.7928 221.448C55.7928 221.448 56.5284 221.142 56.3931 222.06C56.2577 222.978 55.8161 225.156 55.4433 225.361C55.0705 225.566 44.2482 224.68 44.1805 224.204C44.1128 223.727 43.284 219.693 44.1805 220.155Z" fill="#59597C"/>
<path d="M83.5781 223.537C83.5781 223.537 90.8855 224.292 96.7304 222.605C96.7304 222.605 97.4982 222.159 97.5004 223.094C97.5027 224.029 97.3762 226.256 96.9945 226.529C96.6128 226.801 84.4103 227.985 84.255 227.53C84.0996 227.075 82.5019 223.252 83.5781 223.537Z" fill="#59597C"/>
<path d="M118.334 253.308C115.117 253.956 99.8506 253.438 99.8506 253.438C99.8506 253.438 90.8445 252.863 89.32 252.832C87.7955 252.801 86.8535 251.306 86.8535 251.306L86.8846 250.821L86.9734 249.454L87.0776 247.852L87.1187 247.224C87.1187 247.224 87.0787 246.646 87.0455 245.844C87.0288 245.428 87.0133 244.954 87.0077 244.464C87.0077 244.227 87.0077 243.988 87.0077 243.752C87.0077 243.61 87.0077 243.471 87.0144 243.333C87.0144 243.271 87.0144 243.209 87.0199 243.147V243.136C87.0199 243.074 87.0222 243.013 87.0266 242.953C87.0266 242.875 87.0344 242.798 87.0388 242.722C87.0388 242.673 87.0388 242.625 87.0477 242.578C87.0532 242.495 87.0588 242.414 87.0665 242.335L87.0765 242.229C87.0765 242.201 87.0821 242.174 87.0854 242.147C87.0854 242.092 87.0976 242.036 87.1043 241.988C87.1254 241.807 87.1595 241.628 87.2063 241.452C87.2063 241.434 87.2163 241.416 87.2219 241.398L87.2385 241.348C87.2539 241.303 87.2721 241.258 87.2929 241.215C87.8133 240.17 88.7353 237.32 88.7353 237.32C88.7353 237.32 91.2495 236.831 92.9349 235.379C93.0148 235.312 93.0924 235.243 93.1679 235.169C93.3645 234.981 93.5785 234.813 93.807 234.666L93.8979 234.608C93.9468 234.577 93.9978 234.546 94.0489 234.517L94.1731 234.446C94.2064 234.427 94.2408 234.408 94.2763 234.39C94.3118 234.372 94.3595 234.347 94.4017 234.326C94.5304 234.26 94.6635 234.199 94.8 234.141C94.851 234.119 94.9032 234.096 94.9564 234.075L95.1462 234.002C95.2471 233.964 95.3481 233.928 95.4513 233.89H95.458C96.283 233.61 97.1502 233.476 98.021 233.493C98.8143 233.525 99.3935 233.795 99.6908 234.234C99.6908 234.234 99.9893 234.871 100.493 235.734C100.561 235.851 100.634 235.971 100.715 236.094C100.992 236.529 101.307 236.939 101.657 237.318C101.801 237.473 101.954 237.624 102.116 237.763C102.131 237.779 102.147 237.793 102.164 237.807L102.171 237.812L102.245 237.878L102.256 237.887C102.309 237.931 102.364 237.975 102.419 238.017L102.451 238.043L102.484 238.069C102.64 238.188 102.804 238.302 102.976 238.403L103.002 238.419C103.113 238.483 103.224 238.554 103.345 238.631L103.367 238.646L103.39 238.661L103.468 238.71L103.549 238.763C103.771 238.905 104.012 239.064 104.27 239.237L104.784 239.584C104.822 239.611 104.862 239.638 104.903 239.665L105.059 239.776H105.065L105.541 240.11L105.55 240.116C105.572 240.13 105.592 240.146 105.615 240.159L106.078 240.481C106.371 240.685 106.67 240.894 106.966 241.103L107.53 241.498L107.964 241.802L108.272 242.018L108.446 242.139L108.64 242.275L108.93 242.476L109.105 242.599L109.165 242.64C109.453 242.839 109.73 243.031 109.992 243.21L110.214 243.359L110.355 243.455C110.453 243.521 110.549 243.586 110.642 243.647C110.735 243.708 110.811 243.758 110.892 243.813C111.09 243.943 111.272 244.06 111.434 244.16L111.578 244.248C111.73 244.339 111.86 244.413 111.963 244.464L112.012 244.487L112.057 244.507L112.107 244.529H112.113C112.547 244.676 112.988 244.798 113.436 244.894L113.482 244.905L113.539 244.917L113.754 244.967L113.805 244.979L113.902 245C114.282 245.086 114.695 245.176 115.122 245.27L115.233 245.293L115.38 245.325L115.557 245.363L115.637 245.381L115.725 245.4L115.759 245.407H115.767C116.306 245.525 116.853 245.646 117.373 245.766H117.389L117.5 245.793L117.543 245.803H117.553L117.676 245.832L117.702 245.838L117.971 245.904C118.158 245.95 118.337 245.994 118.509 246.04L118.635 246.073C119.075 246.183 119.507 246.321 119.929 246.488L119.978 246.511C120.07 246.55 120.157 246.598 120.239 246.655L120.254 246.667L120.286 246.692C121.156 247.374 121.463 248.526 121.463 248.526C121.482 248.552 121.507 248.574 121.536 248.588C121.681 248.654 121.799 248.767 121.869 248.91C121.897 248.97 121.919 249.031 121.936 249.095L121.943 249.119C121.943 249.134 121.95 249.149 121.954 249.165C121.965 249.209 121.976 249.258 121.987 249.311C121.987 249.331 121.996 249.351 121.999 249.371C122.002 249.391 122.007 249.407 122.01 249.426C122.01 249.426 122.01 249.432 122.01 249.435L122.017 249.463C122.017 249.475 122.017 249.487 122.017 249.499C122.024 249.532 122.029 249.568 122.036 249.604L122.046 249.666L122.052 249.706L122.062 249.765C122.072 249.831 122.083 249.899 122.093 249.966V249.989C122.093 250.022 122.103 250.054 122.108 250.086L122.115 250.134C122.124 250.204 122.134 250.274 122.143 250.341V250.363C122.143 250.379 122.143 250.395 122.143 250.41C122.143 250.426 122.143 250.441 122.143 250.457C122.143 250.472 122.143 250.469 122.143 250.475C122.143 250.482 122.143 250.489 122.143 250.496V250.521C122.143 250.527 122.143 250.533 122.143 250.537L122.15 250.59C122.15 250.605 122.15 250.619 122.15 250.634C122.15 250.648 122.15 250.663 122.156 250.676V250.7C122.156 250.705 122.156 250.711 122.156 250.716C122.155 250.723 122.155 250.73 122.156 250.737C122.164 250.805 122.172 250.866 122.18 250.919C122.18 250.933 122.18 250.948 122.186 250.96C122.191 250.972 122.186 250.984 122.191 250.997C122.197 251.009 122.191 251.021 122.191 251.032C122.32 251.454 121.552 252.66 118.334 253.308Z" fill="#0A1354"/>
<path d="M121.828 249.199C121.815 249.118 121.792 249.04 121.759 248.964C121.656 248.759 121.625 248.663 121.538 248.618C121.508 248.603 121.485 248.579 121.471 248.549C121.471 248.549 121.164 247.398 120.294 246.715L120.262 246.691C119.929 246.456 119.052 246.193 117.979 245.927L117.71 245.862L117.599 245.835L117.554 245.824L117.511 245.814L117.4 245.787H117.383C116.863 245.667 116.316 245.546 115.777 245.428H115.769L115.6 245.391L115.567 245.384L115.267 245.319H115.243L115.132 245.295C114.704 245.202 114.291 245.112 113.912 245.026L113.815 245.005L113.764 244.993L113.549 244.943L113.492 244.93L113.446 244.919C112.998 244.823 112.557 244.701 112.123 244.554H112.117L112.067 244.533L112.022 244.513L111.973 244.49C111.87 244.438 111.74 244.365 111.588 244.274L111.444 244.186C111.282 244.086 111.1 243.969 110.902 243.839C110.821 243.785 110.737 243.727 110.652 243.673C110.567 243.618 110.463 243.547 110.365 243.48L110.224 243.384L110.002 243.235C109.74 243.056 109.463 242.865 109.175 242.666L109.115 242.624L108.94 242.502L108.65 242.301L108.456 242.165L108.282 242.043L107.974 241.828L107.54 241.524L106.976 241.129C106.678 240.919 106.379 240.71 106.088 240.507L105.625 240.185L105.559 240.139L105.55 240.134L105.073 239.805H105.067H105.06L104.909 239.674C104.868 239.647 104.828 239.62 104.789 239.593L104.275 239.246C104.018 239.073 103.777 238.912 103.554 238.772L103.473 238.719L103.397 238.669L103.372 238.655L103.35 238.64C103.229 238.563 103.114 238.492 103.007 238.428L102.982 238.412C102.81 238.306 102.649 238.189 102.489 238.078L102.457 238.051L102.425 238.026C102.369 237.984 102.315 237.94 102.262 237.896L102.251 237.887L102.176 237.821L102.17 237.816C102.153 237.802 102.137 237.788 102.122 237.772C101.96 237.629 101.807 237.477 101.663 237.327C101.313 236.948 100.998 236.538 100.721 236.103C100.641 235.98 100.567 235.86 100.499 235.743C100.298 235.839 100.094 235.94 99.8917 236.044C98.8732 236.565 97.9212 237.157 97.808 237.59C97.6992 238.027 97.6886 238.483 97.7769 238.925C97.8009 239.046 97.8312 239.165 97.8679 239.282L91.1131 240.775L87.0078 243.761C87.0078 243.997 87.0078 244.236 87.0078 244.473C87.0134 244.96 87.0289 245.437 87.0455 245.853C87.0788 246.655 87.1188 247.233 87.1188 247.233L87.4417 248.006L87.5393 248.239L92.7153 249.165L95.3171 249.63C94.9712 249.2 94.6925 248.72 94.4905 248.205C94.019 246.995 93.9058 245.25 96.1637 243.95C96.9306 243.508 97.7304 243.126 98.5558 242.808C99.4837 242.454 100.478 242.311 101.468 242.389C102.458 242.467 103.418 242.765 104.279 243.26C105.194 243.783 106.154 244.348 106.806 244.737C106.901 244.792 106.981 244.87 107.04 244.962C107.1 245.054 107.137 245.16 107.149 245.269C107.16 245.378 107.146 245.489 107.107 245.592C107.069 245.695 107.007 245.787 106.926 245.862C105.767 246.939 104.21 248.366 103.826 249.2C103.789 249.281 103.757 249.363 103.731 249.447C103.671 249.629 103.629 249.815 103.604 250.004C103.535 250.559 103.549 251.122 103.645 251.673L118.24 251.441L121.921 249.722C121.885 249.521 121.858 249.341 121.828 249.199Z" fill="#5A6DA5"/>
<path d="M99.7974 234.287C99.3994 233.6 98.7762 233.074 98.0343 232.798C97.2925 232.521 96.4779 232.512 95.7298 232.771C94.8211 233.086 91.7954 235.887 92.5965 236.125C100.815 238.581 105.023 240.345 105.023 240.345L105.072 239.789C104.079 239.231 103.133 238.592 102.244 237.879C101.556 237.31 100.604 235.677 99.7974 234.287Z" fill="#000219"/>
<path d="M101.893 239.301C101.632 239.268 101.37 239.254 101.107 239.261H100.976C100.478 239.285 99.9831 239.351 99.4961 239.458C96.1675 240.054 94.4888 240.599 93.0609 242.098C91.5275 243.71 90.4668 247.246 92.3441 248.039C93.2317 248.414 93.1652 248.484 93.0586 248.642C92.9344 248.835 92.3929 249.559 92.3929 249.559L86.9629 249.447L87.0672 247.845L87.1082 247.217C87.1082 247.217 87.0683 246.64 87.035 245.837C87.0184 245.421 87.0028 244.947 86.9973 244.457C86.9973 244.22 86.9973 243.981 86.9973 243.745C86.9973 243.604 86.9973 243.465 87.0039 243.327C87.0039 243.264 87.0039 243.202 87.0095 243.141V243.13C87.0095 243.067 87.0117 243.006 87.0161 242.946C87.0161 242.868 87.0239 242.791 87.0284 242.716C87.0284 242.667 87.0283 242.619 87.0372 242.571C87.0428 242.489 87.0483 242.407 87.0561 242.328L87.0661 242.223C87.0661 242.195 87.0716 242.167 87.075 242.14C87.075 242.086 87.0872 242.029 87.0938 241.981C87.1149 241.8 87.149 241.621 87.1959 241.446C87.1959 241.427 87.2059 241.409 87.2114 241.391L87.2281 241.341C87.2434 241.296 87.2616 241.252 87.2824 241.209C87.5909 240.591 87.5443 239.041 87.4555 237.877C87.4429 237.7 87.4659 237.523 87.5233 237.355C87.5807 237.188 87.6712 237.033 87.7894 236.902C87.9077 236.77 88.0511 236.664 88.2113 236.589C88.3715 236.515 88.545 236.473 88.7215 236.468C90.0008 236.422 91.8493 236.197 92.9377 235.345C92.9721 235.319 93.0032 235.294 93.0353 235.266C93.0675 235.238 93.1175 235.195 93.1563 235.155C93.3529 234.967 93.5669 234.799 93.7954 234.652L93.8863 234.594C93.9352 234.563 93.9862 234.531 94.0373 234.502L94.1615 234.431C94.1948 234.412 94.2292 234.393 94.2647 234.376C94.3002 234.358 94.3479 234.332 94.3901 234.311C94.5188 234.245 94.6519 234.184 94.7884 234.126C94.8394 234.104 94.8916 234.082 94.9448 234.061L95.1346 233.987C95.2355 233.949 95.3365 233.914 95.4397 233.876H95.4463C96.0781 233.673 96.7564 233.668 97.3908 233.863C98.0252 234.057 98.5855 234.44 98.9968 234.962C99.262 235.296 99.5605 235.654 99.8723 236.02C100.113 236.303 100.36 236.589 100.606 236.87C100.939 237.251 101.271 237.622 101.567 237.961L101.964 238.415C102.473 238.999 102.237 239.347 101.893 239.301Z" fill="#0A1354"/>
<path d="M111.114 247.344C112.809 248.02 114.768 247.805 117.753 247.478C119.398 247.297 120.046 246.969 120.296 246.711L120.25 246.675C119.343 245.997 113.176 244.995 112.064 244.515C111.66 244.311 111.271 244.079 110.899 243.821C110.648 244.348 109.608 246.744 111.114 247.344Z" fill="#0A1354"/>
<path d="M109.143 242.649C109.143 242.649 109.325 242.262 109.462 242.315C110.476 242.713 110.166 244.044 109.85 244.668C109.74 244.879 109.637 245.091 109.594 245.18C109.493 245.384 109.218 245.068 109.03 244.637C108.843 244.205 109.143 242.649 109.143 242.649Z" fill="#000219"/>
<path d="M110.874 243.548C110.94 243.437 111.145 243.548 111.229 243.586C111.845 243.827 111.814 244.18 111.814 244.18C111.715 245.146 111.916 244.86 111.259 246.206C111.159 246.41 110.884 246.094 110.695 245.663C110.537 245.306 110.722 243.798 110.874 243.548Z" fill="#000219"/>
<path d="M107.56 241.296C107.602 241.265 107.649 241.245 107.699 241.235C107.749 241.225 107.801 241.227 107.85 241.239C108.69 241.573 108.532 242.429 108.531 242.413C108.515 243.151 108.254 243.548 107.976 244.103C107.876 244.308 107.6 243.992 107.412 243.56C107.223 243.129 107.56 241.296 107.56 241.296Z" fill="#000219"/>
<path d="M106.036 240.158C106.13 240.132 106.229 240.135 106.321 240.167C107.161 240.501 107.004 241.356 107.003 241.34C106.985 242.078 106.725 242.476 106.448 243.032C106.348 243.236 106.073 242.92 105.884 242.489C105.695 242.057 106.036 240.158 106.036 240.158Z" fill="#000219"/>
<path d="M104.637 239.165C104.73 239.139 104.83 239.142 104.922 239.174C105.099 239.243 105.255 239.356 105.376 239.503C105.497 239.649 105.578 239.825 105.611 240.012L105.603 240.346C105.594 240.756 105.494 241.159 105.31 241.526C105.199 241.737 105.096 241.949 105.053 242.037C104.953 242.241 104.678 241.925 104.489 241.494C104.3 241.062 104.637 239.165 104.637 239.165Z" fill="#000219"/>
<path d="M103.216 238.116C103.31 238.09 103.409 238.093 103.5 238.124C103.677 238.193 103.834 238.306 103.955 238.453C104.075 238.6 104.157 238.776 104.19 238.963L104.183 239.297C104.173 239.707 104.073 240.11 103.889 240.477C103.778 240.688 103.676 240.899 103.632 240.987C103.532 241.192 103.256 240.876 103.069 240.444C102.881 240.012 103.216 238.116 103.216 238.116Z" fill="#000219"/>
<path d="M101.838 237.121C101.932 237.095 102.031 237.098 102.123 237.13C102.3 237.199 102.457 237.312 102.577 237.459C102.698 237.606 102.779 237.782 102.812 237.969L102.804 238.303C102.795 238.713 102.695 239.115 102.511 239.481C102.4 239.693 102.298 239.904 102.255 239.993C102.154 240.198 101.879 239.882 101.69 239.45C101.502 239.019 101.838 237.121 101.838 237.121Z" fill="#000219"/>
<path d="M100.439 235.03C100.531 234.996 100.633 234.999 100.723 235.039C101.338 235.351 101.407 236.125 101.407 236.125L101.397 236.56C101.386 237.085 101.284 237.604 101.095 238.093C100.984 238.368 100.873 238.642 100.835 238.76C100.733 239.026 100.46 238.616 100.275 238.057C100.09 237.498 100.439 235.03 100.439 235.03Z" fill="#000219"/>
<path d="M86.8486 251.305C86.8486 251.305 87.7917 252.801 89.3162 252.832C90.8407 252.863 99.8457 253.438 99.8457 253.438C99.8457 253.438 115.11 253.955 118.331 253.308C121.552 252.661 122.325 251.454 122.257 251.066C122.203 250.732 122.084 249.619 121.944 249.117C121.928 249.053 121.906 248.991 121.879 248.931C121.845 248.84 121.791 248.758 121.721 248.691C121.651 248.624 121.567 248.574 121.475 248.545C121.031 248.972 119.533 249.937 114.125 250.164C107.039 250.461 100.24 248.673 96.5293 248.352C92.819 248.032 89.8943 248.026 87.1138 247.223L87.0739 247.852L86.8486 251.305Z" fill="#F9EBDC"/>
<path d="M86.8486 251.305C86.8486 251.305 87.7917 252.801 89.3162 252.832C90.8407 252.863 99.8457 253.438 99.8457 253.438C99.8457 253.438 115.11 253.955 118.331 253.308C121.552 252.661 122.325 251.454 122.257 251.066C122.229 250.899 122.187 250.539 122.133 250.159C122.09 249.808 122.027 249.46 121.944 249.117C121.579 249.393 120.867 249.736 119.49 250.078C116.354 250.857 108.66 251.057 104.863 250.242C101.066 249.427 94.2115 248.623 91.5131 248.573C89.466 248.531 87.9393 248.249 87.075 247.856L86.8819 250.824L86.8486 251.305Z" fill="#000219"/>
<path d="M72.9852 253.99C69.7043 254.135 54.7001 251.277 54.7001 251.277C54.7001 251.277 45.8882 249.324 44.3814 249.059C42.8747 248.794 42.1768 247.167 42.1768 247.167L42.2822 246.693L42.5784 245.358L42.9268 243.79L43.0633 243.175C43.0633 243.175 43.1121 242.599 43.202 241.801C43.2486 241.387 43.3063 240.91 43.3751 240.431C43.4083 240.196 43.4439 239.96 43.486 239.727C43.5093 239.587 43.5326 239.45 43.557 239.315C43.567 239.253 43.5792 239.192 43.5903 239.132V239.121C43.6014 239.06 43.6136 239 43.6247 238.941C43.6402 238.864 43.6558 238.788 43.6724 238.718C43.6813 238.67 43.6924 238.623 43.7024 238.577C43.7212 238.496 43.739 238.416 43.759 238.34C43.7667 238.305 43.7756 238.27 43.7845 238.236C43.7933 238.203 43.7989 238.183 43.8056 238.156C43.82 238.104 43.8344 238.051 43.8488 238.003C43.8973 237.827 43.9584 237.655 44.0319 237.488C44.0386 237.471 44.0474 237.454 44.0552 237.437C44.063 237.42 44.0707 237.406 44.0796 237.39C44.1014 237.348 44.1258 237.307 44.1528 237.268C44.8274 236.315 46.1766 233.636 46.1766 233.636C46.1766 233.636 48.7363 233.538 50.6236 232.363C50.7124 232.309 50.8001 232.252 50.8855 232.191C51.1086 232.036 51.346 231.902 51.5945 231.793C51.6267 231.777 51.66 231.764 51.6932 231.749C51.7465 231.726 51.8042 231.702 51.8563 231.682L51.9895 231.631L52.1004 231.592L52.2336 231.548C52.3712 231.502 52.5121 231.462 52.6563 231.426C52.7096 231.412 52.7673 231.397 52.8205 231.385L53.0191 231.342C53.1301 231.32 53.2299 231.301 53.3376 231.283H53.3442C54.2021 231.133 55.0793 231.133 55.9372 231.283C56.7139 231.438 57.2476 231.793 57.4739 232.272C57.4739 232.272 57.6725 232.948 58.0376 233.878C58.0864 234.004 58.1407 234.134 58.2007 234.268C58.4082 234.74 58.6573 235.194 58.9452 235.622C59.0639 235.797 59.1915 235.97 59.3302 236.137C59.342 236.155 59.3553 236.172 59.3701 236.187C59.3701 236.187 59.3701 236.187 59.3757 236.194L59.44 236.27C59.4432 236.273 59.4462 236.277 59.4489 236.281C59.4944 236.333 59.5421 236.384 59.5898 236.434C59.5985 236.445 59.6077 236.455 59.6175 236.464L59.6453 236.497C59.7814 236.638 59.9264 236.775 60.0802 236.906L60.1035 236.925C60.1989 237.005 60.3021 237.094 60.4097 237.189L60.4297 237.206L60.4497 237.226C60.473 237.245 60.4952 237.265 60.5196 237.286L60.5917 237.349C60.7899 237.525 61.0033 237.718 61.2319 237.929L61.6868 238.351C61.7201 238.383 61.7556 238.418 61.7978 238.45L61.9353 238.579L62.3548 238.977L62.3625 238.984C62.3825 239.002 62.4003 239.021 62.4202 239.037C62.5545 239.165 62.6921 239.295 62.8296 239.427C63.0882 239.673 63.3511 239.926 63.6141 240.178L64.1112 240.656C64.2388 240.778 64.3652 240.902 64.4928 241.022L64.7647 241.283L64.9178 241.429L65.0898 241.594L65.345 241.838L65.4992 241.986L65.5524 242.035C65.8054 242.276 66.0506 242.507 66.2825 242.726L66.4767 242.906L66.6009 243.017L66.855 243.251C66.9316 243.322 67.0048 243.389 67.0769 243.453C67.2534 243.613 67.4098 243.756 67.5596 243.88L67.6894 243.991C67.8259 244.102 67.9424 244.198 68.0367 244.264C68.0507 244.275 68.0655 244.286 68.0811 244.295L68.1221 244.322L68.1676 244.349H68.1743C68.5801 244.562 68.998 244.75 69.4258 244.914L69.4702 244.931C69.4876 244.939 69.5053 244.946 69.5235 244.953L69.7287 245.035L69.7775 245.055L69.8696 245.091C70.2324 245.234 70.6263 245.387 71.0358 245.545L71.1389 245.585L71.2787 245.639L71.4474 245.704L71.5239 245.734L71.6083 245.766L71.6405 245.777C71.6405 245.777 71.6404 245.777 71.6482 245.777C72.163 245.978 72.6845 246.181 73.1805 246.38L73.196 246.386L73.307 246.429L73.348 246.446H73.3569L73.4745 246.493L73.4989 246.504L73.7552 246.615C73.9327 246.69 74.1025 246.761 74.2656 246.832L74.3854 246.885C74.8052 247.061 75.2129 247.264 75.6059 247.494L75.6503 247.523C75.7353 247.576 75.8145 247.638 75.8866 247.707C75.8916 247.711 75.8961 247.716 75.9 247.721L75.9277 247.75C76.6833 248.558 76.8153 249.744 76.8153 249.744C76.8305 249.772 76.8521 249.797 76.8786 249.816C77.0104 249.903 77.108 250.034 77.1548 250.185C77.1732 250.248 77.1858 250.313 77.1926 250.378V250.402V250.45C77.1926 250.496 77.2003 250.546 77.2037 250.599C77.2037 250.619 77.2037 250.639 77.2037 250.661C77.2037 250.682 77.2037 250.697 77.2037 250.717C77.2037 250.717 77.2037 250.723 77.2037 250.726C77.2042 250.735 77.2042 250.745 77.2037 250.754C77.2048 250.766 77.2048 250.779 77.2037 250.791C77.2037 250.824 77.2037 250.861 77.2037 250.902V250.964C77.2037 250.978 77.2037 250.991 77.2037 251.004V251.065C77.2037 251.132 77.2037 251.201 77.2037 251.268V251.295C77.2037 251.328 77.2037 251.361 77.2037 251.393C77.2037 251.425 77.2037 251.426 77.2037 251.442C77.2037 251.512 77.2037 251.583 77.2037 251.651C77.2037 251.659 77.2037 251.667 77.2037 251.673C77.2037 251.68 77.2037 251.704 77.2037 251.72C77.2037 251.736 77.2037 251.751 77.2037 251.767C77.2031 251.773 77.2031 251.779 77.2037 251.786C77.2037 251.793 77.2037 251.8 77.2037 251.807V251.832C77.2031 251.838 77.2031 251.843 77.2037 251.848V251.903C77.2037 251.917 77.2037 251.931 77.2037 251.946C77.2037 251.96 77.2037 251.975 77.2037 251.988V252.012C77.2042 252.017 77.2042 252.023 77.2037 252.028V252.034C77.2031 252.041 77.2031 252.048 77.2037 252.055C77.2037 252.123 77.2037 252.185 77.2037 252.238C77.2037 252.252 77.2037 252.266 77.2037 252.279C77.2048 252.291 77.2048 252.304 77.2037 252.317V252.352C77.2114 252.772 76.2661 253.846 72.9852 253.99Z" fill="#0A1354"/>
<path d="M77.0706 250.469C77.07 250.387 77.0592 250.306 77.0384 250.227C76.9685 250.004 76.9518 249.908 76.8764 249.85C76.8498 249.831 76.8303 249.804 76.8209 249.772C76.8209 249.772 76.6933 248.587 75.9333 247.779L75.9056 247.75C75.6149 247.468 74.786 247.073 73.7664 246.644L73.5101 246.533L73.3991 246.488L73.357 246.471L73.3159 246.454L73.205 246.41L73.1883 246.404C72.6924 246.205 72.1709 246.001 71.6561 245.801C71.6561 245.801 71.656 245.801 71.6483 245.801L71.4874 245.738L71.4552 245.727L71.169 245.616L71.1468 245.608L71.0436 245.568C70.6342 245.41 70.2403 245.257 69.8775 245.114L69.7854 245.078L69.7366 245.058L69.5313 244.976C69.5132 244.97 69.4954 244.963 69.478 244.955L69.4337 244.937C69.0058 244.774 68.5879 244.585 68.1821 244.373L68.1366 244.345L68.0956 244.318C68.08 244.309 68.0652 244.298 68.0512 244.287C67.9569 244.221 67.8404 244.128 67.7039 244.014L67.5741 243.903C67.4298 243.78 67.2678 243.636 67.0914 243.477C67.0193 243.412 66.9461 243.346 66.8695 243.274L66.6154 243.041L66.4912 242.929L66.297 242.749C66.0651 242.526 65.8199 242.304 65.5669 242.058L65.5137 242.009L65.3595 241.861L65.1043 241.617L64.9323 241.452L64.7792 241.307L64.5073 241.045C64.3797 240.925 64.2533 240.801 64.1257 240.679L63.6286 240.202C63.3656 239.949 63.1027 239.696 62.8441 239.45C62.7066 239.318 62.569 239.189 62.4347 239.061L62.377 239.005L62.3693 238.999C62.2261 238.863 62.0863 238.73 61.9476 238.601H61.941L61.8101 238.475C61.7734 238.443 61.7379 238.409 61.6991 238.376L61.2442 237.955C61.0156 237.745 60.8022 237.551 60.604 237.375L60.5319 237.311L60.4642 237.25L60.442 237.231L60.422 237.215C60.3111 237.12 60.2112 237.031 60.1158 236.951L60.0925 236.932C59.9394 236.801 59.7944 236.664 59.6576 236.522L59.6298 236.49C59.62 236.481 59.6108 236.471 59.6021 236.46C59.5544 236.41 59.5067 236.359 59.4612 236.306C59.4585 236.303 59.4555 236.299 59.4523 236.295L59.3879 236.22C59.3879 236.22 59.3879 236.22 59.3824 236.213C59.3676 236.198 59.3542 236.181 59.3424 236.163C59.2038 235.996 59.0762 235.822 58.9574 235.648C58.6696 235.219 58.4204 234.766 58.2129 234.293C58.153 234.16 58.102 234.029 58.0499 233.904C57.8368 233.967 57.6193 234.036 57.4041 234.107C56.3179 234.466 55.2871 234.903 55.1096 235.315C54.934 235.731 54.8533 236.182 54.8733 236.634C54.8733 236.755 54.891 236.878 54.9088 237.001L48.0052 237.437L43.495 239.758C43.4573 239.99 43.4218 240.226 43.384 240.461C43.3152 240.944 43.2576 241.417 43.211 241.831C43.1211 242.629 43.0723 243.205 43.0723 243.205L43.2731 244.02L43.3341 244.265L48.307 245.975L50.8068 246.834C50.6389 246.547 50.4992 246.243 50.3896 245.929C50.3156 245.723 50.2549 245.513 50.2077 245.3C49.927 244.031 50.0823 242.295 52.5122 241.352C53.3373 241.034 54.1856 240.779 55.0497 240.591C56.0207 240.384 57.0254 240.396 57.9915 240.625C58.9575 240.854 59.8608 241.296 60.6362 241.918C61.4605 242.575 62.3227 243.282 62.9085 243.766C62.9932 243.836 63.0606 243.924 63.1051 244.025C63.1496 244.125 63.1701 244.235 63.165 244.344C63.1598 244.454 63.1291 244.561 63.0753 244.657C63.0215 244.753 62.9462 244.834 62.8552 244.896C61.5449 245.786 59.7885 246.952 59.2803 247.72C59.2322 247.795 59.1881 247.872 59.1483 247.951C59.0624 248.119 58.9926 248.295 58.9397 248.476C58.7859 249.016 58.7134 249.575 58.7244 250.136L73.1817 252.151L77.0828 251.019C77.0772 250.794 77.0783 250.612 77.0706 250.469Z" fill="#5A6DA5"/>
<path d="M57.5785 232.346C57.2904 231.606 56.7552 230.99 56.0642 230.602C55.3733 230.215 54.5696 230.08 53.7906 230.221C52.8441 230.394 49.4268 232.695 50.1824 233.055C57.928 236.745 61.8158 239.134 61.8158 239.134L61.9489 238.591C61.0527 237.887 60.2155 237.111 59.4458 236.27C58.8544 235.603 58.1632 233.842 57.5785 232.346Z" fill="#000219"/>
<path d="M58.8827 237.622C58.6306 237.548 58.3732 237.495 58.1127 237.462L57.9829 237.446C57.4873 237.393 56.9881 237.382 56.4906 237.413C53.1098 237.489 51.3679 237.771 49.7313 239.033C47.9694 240.391 46.3805 243.72 48.1136 244.792C48.9336 245.3 48.8592 245.349 48.7283 245.499C48.5763 245.67 47.935 246.304 47.935 246.304L42.5859 245.361L42.9343 243.793L43.0708 243.179C43.0708 243.179 43.1196 242.602 43.2095 241.804C43.2561 241.39 43.3138 240.914 43.3826 240.434C43.4159 240.199 43.4514 239.963 43.4935 239.731C43.5168 239.591 43.5401 239.454 43.5645 239.318C43.5745 239.257 43.5867 239.195 43.5978 239.135V239.124C43.6089 239.063 43.6211 239.003 43.6322 238.944C43.6478 238.867 43.6633 238.792 43.6799 238.721C43.6888 238.674 43.6999 238.627 43.7099 238.58C43.7288 238.499 43.7465 238.42 43.7665 238.343C43.7742 238.309 43.7831 238.273 43.792 238.24C43.8009 238.206 43.8064 238.186 43.8131 238.159C43.8275 238.107 43.8419 238.055 43.8563 238.006C43.9048 237.83 43.966 237.658 44.0394 237.492C44.0461 237.474 44.0549 237.457 44.0627 237.44C44.0705 237.424 44.0782 237.409 44.0871 237.394C44.1089 237.351 44.1334 237.31 44.1604 237.271C44.5598 236.708 44.7506 235.169 44.8405 234.005C44.855 233.828 44.905 233.657 44.9873 233.5C45.0696 233.343 45.1827 233.205 45.3196 233.093C45.4566 232.981 45.6147 232.898 45.7844 232.849C45.9542 232.8 46.132 232.786 46.3073 232.808C47.5788 232.959 49.4395 233.021 50.6489 232.347C50.6866 232.327 50.721 232.307 50.7598 232.283C50.7987 232.26 50.8519 232.225 50.8952 232.194C51.1183 232.039 51.3557 231.906 51.6042 231.796C51.6364 231.78 51.6697 231.767 51.7029 231.752C51.7562 231.729 51.8139 231.706 51.866 231.686L51.9992 231.635L52.1102 231.596L52.2433 231.551C52.3809 231.505 52.5218 231.465 52.666 231.43C52.7193 231.415 52.777 231.401 52.8302 231.389L53.0288 231.345C53.1398 231.323 53.2397 231.304 53.3473 231.286H53.3539C54.0094 231.183 54.6807 231.282 55.2782 231.572C55.8758 231.861 56.3711 232.326 56.6981 232.905C56.91 233.275 57.1496 233.677 57.4015 234.086C57.5968 234.402 57.7976 234.723 57.9973 235.038C58.2669 235.466 58.5343 235.884 58.774 236.262L59.0969 236.773C59.503 237.412 59.2167 237.72 58.8827 237.622Z" fill="#0A1354"/>
<path d="M66.7659 246.988C68.3381 247.916 70.3064 248.004 73.3122 248.141C74.9643 248.216 75.6544 247.991 75.9418 247.774L75.9018 247.731C75.1096 246.922 69.1681 244.984 68.1429 244.339C67.7753 244.075 67.4261 243.786 67.0977 243.474C66.7637 243.955 65.369 246.163 66.7659 246.988Z" fill="#0A1354"/>
<path d="M65.5361 242.044C65.5361 242.044 65.7746 241.689 65.9033 241.764C66.8442 242.314 66.3327 243.581 65.9266 244.149C65.789 244.341 65.6515 244.534 65.5938 244.615C65.464 244.802 65.2398 244.446 65.12 243.991C65.0002 243.536 65.5361 242.044 65.5361 242.044Z" fill="#000219"/>
<path d="M67.1105 243.2C67.1915 243.104 67.3768 243.246 67.4545 243.292C68.027 243.626 67.9427 243.97 67.9427 243.97C67.6964 244.909 67.9427 244.656 67.0817 245.885C66.9508 246.072 66.7278 245.716 66.6068 245.262C66.5081 244.886 66.9208 243.423 67.1105 243.2Z" fill="#000219"/>
<path d="M64.1785 240.464C64.2239 240.441 64.2739 240.428 64.3249 240.426C64.3759 240.424 64.4266 240.433 64.4737 240.453C65.2503 240.908 64.9663 241.733 64.9674 241.717C64.8376 242.444 64.5236 242.797 64.1652 243.304C64.0354 243.491 63.8113 243.135 63.6914 242.68C63.5716 242.225 64.1785 240.464 64.1785 240.464Z" fill="#000219"/>
<path d="M62.8459 239.107C62.9422 239.095 63.0397 239.114 63.1255 239.159C63.9021 239.614 63.6192 240.439 63.6203 240.423C63.4905 241.15 63.1765 241.503 62.8182 242.009C62.6873 242.196 62.4643 241.841 62.3444 241.386C62.2246 240.931 62.8459 239.107 62.8459 239.107Z" fill="#000219"/>
<path d="M61.6152 237.91C61.7116 237.899 61.809 237.917 61.8948 237.962C62.0593 238.058 62.1967 238.194 62.2939 238.357C62.391 238.521 62.4446 238.707 62.4496 238.897L62.3897 239.231C62.3181 239.635 62.1577 240.018 61.9204 240.352L61.5875 240.817C61.4566 241.004 61.2325 240.649 61.1137 240.194C60.995 239.739 61.6152 237.91 61.6152 237.91Z" fill="#000219"/>
<path d="M60.3723 236.656C60.4687 236.644 60.5663 236.662 60.6519 236.708C60.8164 236.803 60.9538 236.939 61.0509 237.103C61.1481 237.267 61.2017 237.453 61.2067 237.643L61.1479 237.977C61.0755 238.381 60.9149 238.763 60.6774 239.097C60.5399 239.289 60.4023 239.482 60.3446 239.563C60.2137 239.75 59.9906 239.394 59.8708 238.94C59.751 238.486 60.3723 236.656 60.3723 236.656Z" fill="#000219"/>
<path d="M59.1613 235.46C59.2579 235.448 59.3557 235.467 59.442 235.512C59.6065 235.607 59.7439 235.743 59.841 235.907C59.9381 236.07 59.9918 236.256 59.9967 236.447L59.9379 236.781C59.8663 237.185 59.7056 237.567 59.4675 237.901C59.3299 238.094 59.1923 238.286 59.1346 238.367C59.0048 238.554 58.7807 238.198 58.6609 237.743C58.541 237.288 59.1613 235.46 59.1613 235.46Z" fill="#000219"/>
<path d="M58.0988 233.178C58.1958 233.158 58.2965 233.178 58.3796 233.232C58.9343 233.633 58.8888 234.409 58.8888 234.409L58.8123 234.838C58.7218 235.354 58.5415 235.851 58.2797 236.305C58.131 236.56 57.9823 236.816 57.9213 236.923C57.7793 237.17 57.5729 236.723 57.4775 236.144C57.3821 235.565 58.0988 233.178 58.0988 233.178Z" fill="#000219"/>
<path d="M42.1826 247.172C42.1826 247.172 42.8861 248.794 44.3873 249.063C45.8885 249.333 54.7059 251.281 54.7059 251.281C54.7059 251.281 69.7101 254.139 72.991 253.995C76.2719 253.85 77.2172 252.776 77.2139 252.383C77.2139 252.043 77.2649 250.936 77.2039 250.409C77.1973 250.344 77.1846 250.279 77.1662 250.216C77.1474 250.121 77.1071 250.031 77.0482 249.954C76.9893 249.877 76.9135 249.814 76.8267 249.771C76.3196 250.124 74.6953 250.849 69.3162 250.241C62.2685 249.445 55.8221 246.633 52.2061 245.746C48.5902 244.859 45.6987 244.403 43.0747 243.186L42.9382 243.801L42.1826 247.172Z" fill="#F9EBDC"/>
<path d="M42.1826 247.172C42.1826 247.172 42.8861 248.794 44.3873 249.063C45.8885 249.333 54.7059 251.281 54.7059 251.281C54.7059 251.281 69.7101 254.139 72.991 253.995C76.2719 253.85 77.2172 252.776 77.2139 252.383C77.2139 252.214 77.2261 251.852 77.2306 251.467C77.2411 251.114 77.2323 250.761 77.2039 250.409C76.8001 250.626 76.0445 250.854 74.6309 250.982C71.4133 251.271 63.7786 250.284 60.1515 248.895C56.5244 247.507 49.8728 245.657 47.2155 245.188C45.1994 244.833 43.7326 244.319 42.9382 243.797L42.2936 246.702L42.1826 247.172Z" fill="#000219"/>
<path d="M89.2461 106.538C89.2461 106.538 92.1464 114.807 96.6234 114.858C101.1 114.909 108.226 108.835 112.347 103.834C114.826 100.824 117.53 98.0086 120.437 95.4123C120.437 95.4123 125.475 95.6672 129.748 95.4123C134.022 95.1574 136.771 95.3611 137.071 95.1831C137.372 95.005 137.148 94.1113 135.8 93.9066C135.8 93.9066 139.539 92.7325 139.438 91.6808C139.438 91.6808 140.507 91.5283 140.71 91.013C140.913 90.4978 140.277 89.8645 136.487 90.145C136.487 90.145 138.063 88.844 138.852 88.3332C139.641 87.8224 138.242 87.0834 136.715 87.5931C135.189 88.1028 132.187 89.6865 130.482 89.6609C128.777 89.6353 122.672 89.0989 122.773 88.716C122.874 88.3332 124.911 84.7864 124.045 82.6686C123.18 80.5507 122.468 84.0463 121.476 84.9912C120.484 85.936 116.927 88.5636 117.202 91.5739C117.202 91.5739 102.827 103.415 99.5192 102.649L99.2186 101.108C99.2186 101.108 94.2834 105.517 89.2461 106.538Z" fill="#F8A478"/>
<path d="M136.5 90.175C136.124 90.5064 135.701 90.7802 135.245 90.9874C134.797 91.2045 134.326 91.3706 133.84 91.4827C133.72 91.5116 133.595 91.5327 133.472 91.5572C133.349 91.5817 133.229 91.5951 133.107 91.6107C132.863 91.6419 132.618 91.6608 132.373 91.6674C131.873 91.6968 131.372 91.6533 130.886 91.5383V91.4938C131.125 91.4782 131.365 91.4504 131.605 91.4192C131.844 91.3881 132.083 91.3558 132.32 91.318C132.796 91.2412 133.273 91.1588 133.742 91.0486C134.211 90.9411 134.675 90.8088 135.131 90.6524C135.36 90.5756 135.586 90.4922 135.811 90.4054C136.036 90.3186 136.261 90.2318 136.477 90.1349L136.5 90.175Z" fill="#EA7E4E"/>
<path d="M139.446 91.7086C138.795 91.9883 138.125 92.2212 137.441 92.4053C137.108 92.5077 136.761 92.5822 136.421 92.6701C136.082 92.7581 135.736 92.8204 135.393 92.8927C135.05 92.9651 134.698 93.0174 134.35 93.0663C134.001 93.1153 133.653 93.1609 133.301 93.1854C132.595 93.2568 131.885 93.2746 131.177 93.2388L131.17 93.1943C131.861 93.0801 132.552 92.9625 133.243 92.8415C133.933 92.7191 134.622 92.5945 135.308 92.4565L139.438 91.6641L139.446 91.7086Z" fill="#EA7E4E"/>
<path d="M135.808 93.9288C135.535 94.1233 135.236 94.2778 134.92 94.3878C134.315 94.6063 133.677 94.7194 133.034 94.7219C132.699 94.7268 132.364 94.6844 132.041 94.596L132.033 94.5526C132.346 94.488 132.659 94.4275 132.973 94.371L133.913 94.1984L134.855 94.0391C135.168 93.9842 135.483 93.9337 135.799 93.8876L135.808 93.9288Z" fill="#EA7E4E"/>
<path d="M99.5237 102.659C99.5237 102.659 95.9321 107.703 90.2225 108.805L89.2461 106.538C89.2461 106.538 94.8503 105.291 99.223 101.118L99.5237 102.659Z" fill="#DC6350"/>
<path d="M74.9508 84.0174C74.93 84.0173 74.9091 84.0151 74.8887 84.0107C74.8532 84.0026 74.8196 83.9875 74.7899 83.9663C74.7602 83.9451 74.7349 83.9182 74.7156 83.8871C74.6964 83.8561 74.6834 83.8215 74.6775 83.7854C74.6716 83.7493 74.6728 83.7124 74.6812 83.6769C74.6945 83.619 76.0415 77.8564 78.4769 73.6831C80.9534 69.4396 86.2603 68.3156 86.4844 68.27C86.5201 68.2627 86.5569 68.2625 86.5927 68.2695C86.6284 68.2764 86.6625 68.2904 86.6929 68.3105C86.7233 68.3307 86.7494 68.3566 86.7698 68.3869C86.7902 68.4172 86.8044 68.4512 86.8117 68.487C86.819 68.5228 86.8192 68.5597 86.8122 68.5956C86.8053 68.6315 86.7914 68.6656 86.7713 68.6961C86.7512 68.7266 86.7254 68.7528 86.6952 68.7733C86.665 68.7937 86.6311 68.808 86.5954 68.8153C86.5421 68.8264 81.3051 69.9382 78.9562 73.9647C76.5619 78.0657 75.2349 83.7459 75.2216 83.8026C75.2071 83.8637 75.1725 83.9182 75.1234 83.9571C75.0743 83.9961 75.0135 84.0173 74.9508 84.0174Z" fill="#AF0808"/>
<path d="M76.5563 55.9492C76.5563 55.9492 76.198 56.1473 72.2924 55.2213C68.3869 54.2954 68.5677 48.2491 68.5677 48.2491C68.6221 48.3103 70.3674 50.2523 71.66 51.1371C74.1498 52.8453 76.431 52.1186 76.431 52.1186L76.4543 52.7863L76.5563 55.9492Z" fill="#DC6350"/>
<path d="M60.1914 136.803L66.022 161.15L66.6034 155.381L60.1914 136.803Z" fill="#231F36"/>
<path d="M76.4506 52.7852C76.4506 52.7852 72.4274 53.3061 70.5811 51.3118C68.7348 49.3175 68.5684 48.2491 68.5684 48.2491C68.6227 48.3103 70.3869 50.2223 71.6607 51.1371C73.9252 52.7641 76.4317 52.1186 76.4317 52.1186L76.4506 52.7852Z" fill="#B1291D"/>
<path d="M81.176 37.4919C81.2248 37.3228 81.125 37.1135 80.9885 36.9355C80.6557 36.5181 79.7003 36.2299 78.6274 37.2693C77.8751 38.0005 78.4754 38.3956 78.7117 37.907C78.8227 37.6689 79.5295 37.1825 79.8213 37.0646C80.5569 36.7797 81.054 37.897 81.176 37.4919Z" fill="#1C1D31"/>
<path d="M80.7205 47.3666C79.3385 46.8859 77.9887 46.3164 76.6797 45.6617C76.6797 45.6617 77.9468 48.849 80.7205 47.3666Z" fill="#DC6350"/>
<path d="M80.9183 40.027C80.8906 40.3253 80.793 40.7382 80.4657 40.7282C79.9553 40.7126 80.3714 39.2814 80.4945 39.2024C80.7918 39.0065 80.9461 39.3949 80.9272 39.7299C80.9307 39.829 80.9277 39.9283 80.9183 40.027Z" fill="#0A031C"/>
<path d="M80.7062 39.7747C80.7796 39.7747 80.8391 39.7048 80.8391 39.6187C80.8391 39.5326 80.7796 39.4628 80.7062 39.4628C80.6328 39.4628 80.5732 39.5326 80.5732 39.6187C80.5732 39.7048 80.6328 39.7747 80.7062 39.7747Z" fill="white"/>
<path d="M69.2381 41.8521C69.0793 41.5529 68.8778 41.2784 68.64 41.0375C68.4037 40.7901 68.1332 40.578 67.8367 40.4076C67.5376 40.2337 67.2074 40.1203 66.8648 40.0737C66.5279 40.0296 66.1853 40.0678 65.8662 40.185C66.1925 40.1432 66.5235 40.1552 66.8459 40.2206C67.004 40.2533 67.1589 40.3002 67.3086 40.3609C67.4574 40.4221 67.6013 40.4946 67.7391 40.5779C68.0226 40.7401 68.2888 40.931 68.5335 41.1477C68.784 41.3663 69.0193 41.6017 69.2381 41.8521Z" fill="#DC6350"/>
<path d="M66.2637 41.3347C66.3746 41.2234 66.4856 41.1266 66.5888 41.0309C66.6957 40.9375 66.8091 40.8519 66.9283 40.7749C67.0453 40.6973 67.1703 40.6324 67.3011 40.5813C67.4382 40.53 67.5787 40.4884 67.7216 40.4566C67.5715 40.4115 67.4128 40.4035 67.2589 40.4332C67.1029 40.4618 66.9542 40.5216 66.8218 40.6091C66.6907 40.6949 66.5745 40.8017 66.4778 40.9251C66.3797 41.0458 66.3069 41.1851 66.2637 41.3347Z" fill="#DC6350"/>
<path d="M137.45 253.633H159.498" stroke="#494867" stroke-width="9" stroke-miterlimit="10" stroke-linecap="round"/>
<path d="M17.1699 253.633H34.4254" stroke="#494867" stroke-width="9" stroke-miterlimit="10" stroke-linecap="round"/>
</svg>
