<svg width="31" height="20" viewBox="0 0 31 20" fill="none" xmlns="http://www.w3.org/2000/svg">
<path d="M13.1257 1.04309C12.9577 0.900215 12.7372 0.832055 12.5162 0.854056L12.5148 0.853956L12.5003 0.855749C12.3678 0.872072 12.2398 0.920989 12.1301 0.998405L12.1299 0.998567L1.1751 8.75581L1.1751 8.75581L1.17425 8.75642C0.973279 8.90083 0.85 9.13071 0.85 9.37761C0.85 9.62543 0.973079 9.85573 1.17485 9.99923L1.1751 9.99941L12.1293 17.7563C12.1294 17.7563 12.1294 17.7563 12.1295 17.7564C12.3697 17.928 12.6873 17.9527 12.9521 17.8253C13.2196 17.6972 13.392 17.4341 13.3936 17.1405V17.1397V13.8854C15.3741 13.8836 23.164 14.1856 28.8341 18.961L28.8342 18.9611C29.1037 19.1878 29.4937 19.2126 29.7914 19.0239L29.7917 19.0237C30.0894 18.8341 30.2234 18.4734 30.11 18.139C27.409 10.1266 19.2197 6.59139 13.3938 5.07738V1.62627C13.3966 1.40219 13.2968 1.18985 13.1263 1.04352L13.1263 1.04352L13.1257 1.04309ZM11.8048 3.13711V5.65897C11.8048 6.01484 12.0539 6.31971 12.4021 6.40578L12.4025 6.40589C17.3513 7.61235 24.1137 10.3651 27.4037 16.0942C20.8365 12.0883 13.1529 12.3093 12.5625 12.3357L12.5623 12.3357C12.1435 12.3549 11.805 12.6902 11.805 13.1061V15.6185L2.99164 9.38257L11.8048 3.13711Z" fill="#474555" stroke="#474555" stroke-width="0.3"/>
</svg>
