<svg width="12" height="16" viewBox="0 0 12 16" fill="none" xmlns="http://www.w3.org/2000/svg">
<path d="M9.36171 4.40577H9.46171H10.2312H10.3312V4.50577V7.22626V7.23145L10.3311 7.23144L9.98492 13.9004L9.98492 13.9004C9.94973 14.5729 9.39888 15.1008 8.73103 15.1M9.36171 4.40577L8.73115 15M9.36171 4.40577V4.50577V7.20312L9.01567 13.8491C9.00758 14.004 8.88182 14.1229 8.73151 14.1223H8.73115H3.26885L3.2685 14.1223C3.11979 14.1229 2.99488 14.0057 2.9846 13.8536L2.98433 13.8484L2.63829 7.22365V4.50577V4.40577H2.53829H1.76878H1.66878V4.50577V7.24883H1.66864L1.66891 7.25403L2.01508 13.9004L2.01508 13.9004C2.05028 14.5728 2.60036 15.1008 3.26897 15.1M9.36171 4.40577L3.26885 15M8.73103 15.1L8.73115 15M8.73103 15.1H8.73115V15M8.73103 15.1H3.26897M8.73115 15H3.26885M3.26897 15.1L3.26885 15M3.26897 15.1H3.26885V15M11.1 2.95132V2.85135L11 2.85132L8.79219 2.85062V2.56725C8.83751 2.11528 8.67938 1.66591 8.36085 1.34403C8.04231 1.02212 7.59702 0.861865 7.14871 0.907711H4.85129C4.40298 0.861861 3.95771 1.02212 3.63915 1.34402C3.32062 1.66589 3.1625 2.11528 3.20781 2.56725V2.85132H1H0.9V2.95132V3.72819V3.82818L0.999993 3.82819L11 3.82892L11.1 3.82893V3.72892V2.95132ZM7.82342 2.56217V2.85132H4.17658V2.56289C4.17658 2.29212 4.22965 2.13082 4.32496 2.03458C4.42003 1.93858 4.57898 1.88529 4.8461 1.88529H4.84613L7.1539 1.88457C7.15391 1.88457 7.15392 1.88457 7.15393 1.88457C7.42135 1.88457 7.58028 1.93802 7.67526 2.03407C7.77052 2.1304 7.82342 2.29171 7.82342 2.56217ZM4.46097 4.40577H4.36096L4.36097 4.50578L4.36169 13.4456L4.3617 13.5456H4.46169H5.23121H5.33121L5.33121 13.4456L5.33049 4.50577L5.33048 4.40577H5.23049H4.46097ZM6.76878 4.40577H6.66877L6.66878 4.50578L6.6695 13.4456L6.66951 13.5456H6.7695H7.53901H7.63902L7.63901 13.4456L7.63829 4.50577L7.63828 4.40577H7.53829H6.76878Z" fill="#474555" stroke="#474555" stroke-width="0.2"/>
</svg>
