<svg width="22" height="26" viewBox="0 0 22 26" fill="none" xmlns="http://www.w3.org/2000/svg">
<path d="M17.8546 14.2519H17.8446C17.1998 14.2519 16.6172 13.8557 16.3688 13.246L17.8546 14.2519ZM17.8546 14.2519C18.729 14.2464 19.4414 13.5212 19.4414 12.6205C19.4414 11.9598 19.051 11.365 18.4543 11.1129C17.859 10.8622 17.1726 11.0003 16.7164 11.4663L16.7163 11.4664C16.2582 11.9332 16.1204 12.6349 16.3688 13.2459L17.8546 14.2519ZM17.8459 9.49209C16.184 9.34562 14.7194 10.5871 14.5542 12.2727L14.7034 12.2874L14.5542 12.2728C14.3931 13.9168 15.5282 15.395 17.1216 15.6429V19.1611C17.1216 20.7774 16.275 22.2697 14.9037 23.077C13.5318 23.8843 11.8432 23.8842 10.4724 23.077L10.4724 23.077C9.1001 22.2696 8.25456 20.7773 8.25456 19.1611V14.1003C9.88681 13.928 11.4031 13.1546 12.5174 11.9226L12.5175 11.9226C13.6616 10.6562 14.2974 8.99855 14.2985 7.27738V7.27728V2.51912V2.36912H14.1485H11.6352V1V0.85H11.4852H10.3393H10.1893V1V5.20489V5.35489H10.3393H11.4852H11.6352V5.20489V3.8369H12.8817V7.27182C12.7493 9.10187 11.7149 10.7372 10.1366 11.6146C8.55713 12.4927 6.64847 12.4927 5.06893 11.6146C3.49072 10.7373 2.45736 9.10202 2.32498 7.27182V3.8369H3.57146V5.20489V5.35489H3.72146H4.86734H5.01734V5.20489V1V0.85H4.86734H3.72146H3.57146V1V2.36805L0.999937 2.36913L0.85 2.36919V2.51913V7.27729C0.85 8.98453 1.47314 10.6304 2.60015 11.8947C3.69559 13.1246 5.19115 13.9068 6.80874 14.0987V19.1614C6.80874 21.2995 7.92824 23.2766 9.74734 24.3475L9.7474 24.3475C11.5669 25.4175 13.8093 25.4175 15.6289 24.3475L15.6289 24.3475C17.448 23.2765 18.5675 21.2994 18.5675 19.1614V15.6431C20.161 15.3953 21.2949 13.917 21.135 12.2731L21.135 12.273C20.9699 10.5882 19.5056 9.34719 17.8459 9.49209Z" fill="#474555" stroke="#474555" stroke-width="0.3"/>
</svg>
