<svg width="24" height="24" viewBox="0 0 24 24" fill="none" xmlns="http://www.w3.org/2000/svg">
<path d="M16.7026 9.47416C16.2707 9.47416 15.8387 9.52449 15.4315 9.60048V3.51125C15.4315 1.18713 11.5415 0 7.72808 0C3.88972 0 0 1.21289 0 3.51125V16.699C0 19.0232 3.88997 20.236 7.70342 20.236C8.54258 20.236 9.38174 20.1601 10.1951 20.0337C11.4156 22.3835 13.8555 24 16.7039 24C20.7209 24 24 20.7414 24 16.7494C23.999 12.7328 20.7199 9.47396 16.7028 9.47396L16.7026 9.47416ZM7.70342 1.51587C11.4157 1.51587 13.8815 2.70309 13.8815 3.51135C13.8815 4.31961 11.4156 5.50684 7.70342 5.50684C3.99115 5.50684 1.52538 4.29394 1.52538 3.51135C1.52538 2.72874 3.9912 1.51587 7.70342 1.51587ZM1.52538 5.71027C3.00011 6.59452 5.36476 7.04948 7.70342 7.04948C10.0421 7.04948 12.4067 6.59452 13.8815 5.71027V6.8215C13.8815 7.6051 11.4156 8.81698 7.70342 8.81698C3.99115 8.81698 1.52538 7.60409 1.52538 6.8215V5.71027ZM1.52538 9.0194C3.00011 9.90366 5.36476 10.3586 7.70342 10.3586C10.0421 10.3586 12.4067 9.90366 13.8815 9.0194V10.0556C12.9916 10.4346 12.1783 10.9656 11.5169 11.6475C10.5 11.9258 9.20302 12.1271 7.70347 12.1271C3.9912 12.1271 1.52543 10.9142 1.52543 10.1316L1.52538 9.0194ZM1.52538 12.3038C3.00011 13.188 5.36476 13.643 7.70342 13.643C8.54258 13.643 9.38174 13.567 10.1951 13.4407C9.8902 14.022 9.66078 14.6279 9.53367 15.2852C8.97457 15.3612 8.3638 15.4115 7.70342 15.4115C3.99115 15.4115 1.52538 14.1986 1.52538 13.416V12.3038ZM7.70342 18.7214C3.99115 18.7214 1.52538 17.5086 1.52538 16.726V15.6147C3.00011 16.499 5.36476 16.9539 7.70342 16.9539C8.26252 16.9539 8.82162 16.9036 9.38174 16.8533C9.38174 17.4592 9.48304 18.0405 9.63597 18.5961C9.05005 18.6455 8.41447 18.7215 7.70342 18.7215V18.7214ZM16.7026 22.4853C13.5248 22.4853 10.9319 19.9086 10.9319 16.7506C10.9319 13.5925 13.5248 11.0158 16.7026 11.0158C19.8805 11.0158 22.4734 13.5925 22.4734 16.7506C22.4734 19.9086 19.8805 22.4853 16.7026 22.4853Z" fill="#474555"/>
<path d="M19.6521 14.5528C19.6521 14.3505 19.5756 14.1739 19.4237 14.0219C19.2708 13.8699 19.093 13.7949 18.8894 13.7949C18.6858 13.7949 18.5081 13.8709 18.3551 14.0219L13.9567 18.4174C13.8037 18.5693 13.7283 18.746 13.7283 18.9483C13.7283 19.1506 13.8047 19.3273 13.9567 19.4793C14.1096 19.6313 14.2874 19.7063 14.491 19.7063C14.6946 19.7063 14.8723 19.6303 15.0253 19.4793L19.4483 15.0838C19.5755 14.9318 19.6519 14.7542 19.6519 14.5528H19.6521Z" fill="#474555"/>
<path d="M15.8388 14.7036C15.8388 16.2866 13.4485 16.2866 13.4485 14.7036C13.4485 13.1207 15.8388 13.1207 15.8388 14.7036Z" fill="#474555"/>
<path d="M19.9313 18.7717C19.9313 20.3547 17.542 20.3547 17.542 18.7717C17.542 17.1888 19.9313 17.1888 19.9313 18.7717Z" fill="#474555"/>
</svg>
