<svg width="22" height="24" viewBox="0 0 22 24" fill="none" xmlns="http://www.w3.org/2000/svg">
<path d="M20.3886 0H10.4175C9.52771 0 8.80623 0.713579 8.80623 1.59453V6.36658C7.93774 6.55406 7.09052 6.82953 6.2781 7.18729C5.57886 7.49051 4.89606 7.83008 4.23357 8.206C2.89698 8.95401 1.97239 10.2568 1.71509 11.7537L0.00905704 21.4748C-0.0189898 21.6355 0.0187287 21.8001 0.11351 21.9321C0.208289 22.065 0.352393 22.1549 0.51391 22.1827C0.851448 22.2401 1.17156 22.0162 1.22959 21.6834L2.93563 11.9527V11.9517C3.13486 10.8192 3.837 9.83587 4.84961 9.27061C5.47245 8.92242 6.11368 8.60678 6.77132 8.32555C7.428 8.03858 8.10887 7.80902 8.8062 7.63971V11.7222C8.6592 11.6648 8.51026 11.6151 8.35745 11.5749C8.02766 11.485 7.68626 11.6773 7.59535 12.0034C7.50443 12.3306 7.69883 12.6682 8.02863 12.7581C8.35359 12.8394 8.65728 12.9858 8.92227 13.1886C8.54317 13.7692 8.05089 14.2685 7.47445 14.6578C7.19108 14.851 7.12047 15.2346 7.31584 15.5148C7.5112 15.7951 7.89903 15.8649 8.1824 15.6717C8.91548 15.1733 9.53834 14.5306 10.0093 13.7835L12.0249 10.6394C12.346 10.1343 13.021 9.98224 13.5317 10.3008C14.0423 10.6183 14.1951 11.285 13.874 11.7901L12.3692 14.2024C11.7647 15.1619 11.46 16.2762 11.4949 17.4049C11.5442 18.942 10.7976 20.397 9.51415 21.2645L9.35071 21.3774C8.69499 21.8203 8.13888 22.3932 7.71622 23.0599C7.5344 23.3479 7.62338 23.7267 7.91449 23.9065C8.2056 24.0863 8.58956 23.9992 8.77137 23.7104C9.10309 23.1862 9.54026 22.7357 10.0567 22.3866L10.2201 22.2737C11.1447 21.6443 11.8643 20.7633 12.2918 19.7371L12.4426 19.8891V19.8882C12.9262 20.3722 13.6313 20.5702 14.2996 20.4085C14.9679 20.2469 15.5008 19.7505 15.7039 19.1C16.376 19.2492 17.0772 19.0263 17.5356 18.5175C17.9941 18.0086 18.1372 17.2941 17.9099 16.6513L17.8799 16.5652H20.3887C21.2785 16.5652 22 15.8516 22 14.9716V1.59455C22 1.17176 21.8298 0.766202 21.528 0.466798C21.2253 0.168349 20.8162 2.39949e-05 20.3887 2.39949e-05L20.3886 0ZM14.9417 12.4397C15.5781 11.3665 15.2376 9.9861 14.1728 9.32323C13.108 8.66036 11.7027 8.95401 10.9997 9.9861L10.0538 11.4553V1.59436C10.0538 1.39349 10.2153 1.22992 10.4175 1.22418H17.6961L17.6971 15.3359H13.1563C13.2346 15.1675 13.3226 15.0039 13.4213 14.8461L14.9417 12.4397ZM14.2947 19.0809C14.0064 19.3133 13.5867 19.2894 13.3265 19.0263L12.6708 18.3654C12.7201 18.0354 12.7414 17.7025 12.7327 17.3687C12.7259 17.098 12.7434 16.8283 12.7849 16.5604H13.4755C13.4755 16.5604 13.4755 16.5853 13.4929 16.5968L14.4581 18.1492V18.1502C14.6486 18.4562 14.578 18.8551 14.2947 19.0809L14.2947 19.0809ZM16.7454 17.053H16.7464C16.8537 17.3649 16.7086 17.7073 16.4088 17.8508C16.1081 17.9933 15.7473 17.8919 15.5674 17.6136C15.5481 17.5791 15.5307 17.5447 15.5104 17.5103L14.9233 16.5652H16.5703L16.7454 17.053ZM20.7591 14.9669H20.76C20.76 15.1706 20.5917 15.3361 20.3857 15.3361H18.935V1.22438H20.3886C20.5946 1.22438 20.762 1.38986 20.762 1.59455L20.7591 14.9669Z" fill="#474555"/>
</svg>
