<svg width="22" height="24" viewBox="0 0 22 24" fill="none" xmlns="http://www.w3.org/2000/svg">
<path fill-rule="evenodd" clip-rule="evenodd" d="M11 2.0062C10.7634 2.0062 10.4923 2.0062 10.2557 2.04072C9.95161 2.07524 9.64621 2.3129 9.57879 2.78823L9.477 3.43349C9.30777 4.55542 8.52907 5.40517 7.68296 5.84731C7.54811 5.91502 7.41194 5.98274 7.31012 6.05178C6.49839 6.56162 5.38125 6.83381 4.33152 6.39167L3.72205 6.15401C3.31618 5.98406 2.91032 6.11949 2.7411 6.39167C2.47007 6.79928 2.19904 7.24142 1.99678 7.68356C1.86193 7.95574 1.92936 8.36336 2.30086 8.63555L2.80853 9.04315C3.68903 9.75748 4.02748 10.8449 3.99309 11.7969V12.2722C4.02746 13.2573 3.68902 14.3461 2.80853 15.0259L2.30086 15.4335C1.96241 15.7057 1.89499 16.1133 1.99678 16.3855C2.20038 16.8276 2.47007 17.2698 2.7411 17.6774C2.91032 17.915 3.28315 18.0518 3.72205 17.915L4.33152 17.6774C5.38125 17.2698 6.49704 17.5074 7.31012 18.0173C7.44498 18.085 7.54677 18.1527 7.68296 18.2217C8.52907 18.6971 9.30777 19.5136 9.477 20.6356L9.57879 21.2808C9.64622 21.723 9.95163 21.9952 10.2557 22.0283C10.4923 22.0629 10.7634 22.0629 11 22.0629C11.2366 22.0629 11.5077 22.0629 11.7443 22.0283C12.0484 21.9938 12.3538 21.7561 12.4212 21.2808L12.523 20.6356C12.6922 19.5136 13.4709 18.6639 14.317 18.2217C14.4519 18.154 14.5881 18.0863 14.6899 18.0173C15.5016 17.5074 16.6187 17.2352 17.6685 17.6774L18.278 17.915C18.6838 18.085 19.0897 17.9496 19.2589 17.6774C19.5299 17.2698 19.801 16.8276 20.0032 16.3855C20.1381 16.1133 20.0706 15.7057 19.6991 15.4335L19.1915 15.0259C18.311 14.3116 17.9725 13.2242 18.0069 12.2722V11.7969C17.9725 10.8117 18.311 9.72295 19.1915 9.04315L19.6991 8.63555C20.0376 8.36336 20.105 7.95575 20.0032 7.68356C19.7996 7.24142 19.5299 6.79928 19.2589 6.39167C19.0897 6.15401 18.7168 6.01724 18.278 6.15401L17.6685 6.39167C16.6187 6.79928 15.503 6.56162 14.6899 6.05178C14.555 5.98406 14.4532 5.91635 14.317 5.84731C13.4709 5.37199 12.6922 4.55542 12.523 3.43349L12.4212 2.78823C12.3538 2.34609 12.0484 2.0739 11.7443 2.04072C11.5077 2.0062 11.2366 2.0062 11 2.0062ZM10.1195 0.0345199C10.4236 -1.21557e-07 10.6946 0 11 0C11.3041 0 11.6095 -1.21557e-07 11.8805 0.0345199C13.2687 0.136754 14.2152 1.2587 14.3845 2.48151L14.4863 3.12678C14.5206 3.46668 14.7903 3.84111 15.2306 4.07876C15.3998 4.181 15.569 4.24871 15.7039 4.35095C16.1441 4.62313 16.5844 4.65633 16.8884 4.5209L17.4979 4.28323C18.6481 3.84109 20.0706 4.07876 20.848 5.23522C21.1864 5.71053 21.4905 6.25491 21.7285 6.79929C22.338 8.05664 21.8303 9.41624 20.8824 10.1983L20.3747 10.6059C20.1037 10.8103 19.9344 11.218 19.9344 11.7278V12V12.2722C19.9344 12.782 20.1037 13.1896 20.3747 13.3941L20.8824 13.8017C21.8633 14.5492 22.338 15.9434 21.7285 17.2007C21.4575 17.7451 21.1534 18.2549 20.848 18.7648C20.0693 19.9199 18.6481 20.1589 17.4979 19.7168L16.8884 19.4791C16.55 19.3437 16.1441 19.3769 15.7039 19.6491C15.5346 19.7513 15.3998 19.8535 15.2306 19.9212C14.7903 20.1589 14.5193 20.5333 14.4863 20.8732L14.3845 21.5185C14.2152 22.7427 13.2673 23.8632 11.8805 23.9655C11.5764 24 11.3054 24 11 24C10.6959 24 10.3905 24 10.1195 23.9655C8.73132 23.8632 7.78476 22.7413 7.61553 21.5185L7.51373 20.8732C7.47936 20.5333 7.20966 20.1589 6.76942 19.9212C6.6002 19.819 6.43098 19.7513 6.29614 19.6491C5.85589 19.3769 5.41564 19.3437 5.11158 19.4791L4.5021 19.7168C3.35192 20.1589 1.92936 19.9212 1.15202 18.7648C0.813574 18.2895 0.509513 17.7451 0.271517 17.2007C-0.337957 15.9434 0.169719 14.5838 1.11763 13.8017L1.6253 13.3941C1.89633 13.1897 2.06556 12.782 2.06556 12.2722V12V11.7278C2.06556 11.218 1.89633 10.8104 1.6253 10.6059L1.11763 10.1983C0.13668 9.45077 -0.337957 8.05664 0.271517 6.79929C0.542539 6.25491 0.846606 5.74507 1.15202 5.23522C1.93072 4.08011 3.35192 3.84109 4.5021 4.28323L5.11158 4.5209C5.45002 4.65633 5.85589 4.62313 6.29614 4.35095C6.46536 4.24871 6.60021 4.14648 6.76942 4.07876C7.20967 3.8411 7.4807 3.46668 7.51373 3.12678L7.61553 2.48151C7.78476 1.25866 8.73268 0.136761 10.1195 0.0345199ZM11 9.04182C9.34215 9.04182 8.0214 10.4014 8.0214 12.0332C8.0214 13.665 9.37519 15.0246 11 15.0246C12.6578 15.0246 13.9786 13.665 13.9786 12.0332C13.9786 10.4014 12.6579 9.04182 11 9.04182ZM6.02517 12.0332C6.02517 9.27948 8.25946 7.03703 11 7.03703C13.742 7.03703 15.9748 9.2809 15.9748 12.0332C15.9748 14.7869 13.7405 17.0294 11 17.0294C8.22501 17.0294 6.02517 14.7868 6.02517 12.0332Z" fill="#474555"/>
</svg>
